<?xml version="1.0" encoding="UTF-8"?>
<svg id="eagle" data-name="eagle" xmlns="http://www.w3.org/2000/svg" width="23.35" height="21.78" viewBox="0 0 23.35 21.78">
  <g id="eagle-2" data-name="eagle">
    <path d="m14.08,8.28c.03-.22.04-.45.04-.69,0-.13,0-.28-.02-.45,1.99-.03,3.74-1.46,3.74-3.12,0-.84-.55-1.47-.86-1.85.07-.02.14-.03.21-.05.29.25,1.12,1.16,1.12,2.3,0,1.98-1.98,3.82-4.24,3.86m-2.01-6.9c-.04-.22-.12-.42-.25-.59,0-.2.09-.4.41-.24-.18.18-.04.5-.04.5,0,0,.36-.17.28-.4.53.13.15.85-.41.74m-.46,1.02c-.07-.3-.22-.6-.42-.83-.18-.21-.47-.46-.86-.46-.18,0-.48.08-.67.16-.07-.13-.21-.44-.21-.58s.24-.29.71-.29c1.03,0,1.65.47,1.65,1.25,0,.27-.11.52-.21.75m2.65,13.3c.12,0,.18.02.25.05.3.81,1.44,2.33,1.49,2.4h.03c.28-.04,1-.14,1.6-.14h0c.07,0,.14,0,.19.05.04.04.06.11.06.2,0,.15-.06.4-.14.51-.21-.23-.55-.33-1.1-.33-.16,0-.36.05-.46.08h-.04l-.05.02.32.32c.49.49.91.91.91,1.18,0,.17-.16.39-.31.48-.03-.51-.55-1.19-1.05-1.58l-.04-.03v.18c-.02.12-.03.31-.03.5,0,.97-.1,1.12-.44,1.12-.05,0-.13,0-.18-.03.19-.24.27-.55.27-1.09v-.45c0-.22.02-.39.04-.52v-.08h-.04c-.16-.02-.45-.06-.68-.06-.48,0-.81.04-1.04.27-.16-.13-.32-.34-.32-.48,0-.2.13-.22.29-.22.08,0,.16,0,.27.02.21.03.52.08,1.16.08h.04v-.04c-.17-.47-.62-1.14-1.34-2.01.06-.23.13-.39.35-.39m-6.17,2.4v.04h.03c.64,0,.95-.05,1.16-.08.11,0,.19-.02.27-.02.16,0,.29.02.29.22,0,.14-.16.35-.31.48-.24-.22-.56-.27-1.04-.27-.23,0-.52.04-.68.06h-.06v.08c.03.13.05.3.05.52v.45c0,.54.07.85.27,1.09-.05.02-.13.03-.18.03-.34,0-.44-.15-.44-1.12,0-.2-.01-.38-.02-.5v-.18l-.05.03c-.5.38-1.02,1.07-1.05,1.58-.15-.1-.32-.32-.32-.48,0-.28.42-.7.91-1.18l.28-.28.04-.04-.09-.02c-.11-.03-.3-.08-.46-.08-.55,0-.89.1-1.1.33-.08-.11-.14-.36-.14-.51,0-.1.02-.17.06-.2.05-.05.12-.05.19-.05h.01c.6,0,1.32.11,1.6.15h.03c.05-.08,1.19-1.6,1.49-2.41.07-.03.13-.05.25-.05.23,0,.29.15.35.38-.72.87-1.16,1.55-1.32,2.01m-3.09-13.67c0-1.14.83-2.04,1.12-2.3.07.02.14.03.21.05-.31.38-.86,1.01-.86,1.85,0,1.67,1.78,3.12,3.8,3.12,0,.14-.02.29-.02.45,0,.25,0,.48.04.69-2.28-.01-4.29-1.87-4.29-3.86m15.31,3.51c1.02,1.62,1.83,1.59,3.03,1.59-1-.77-1.66-1.75-1.98-2.25l-1.87-2.99c-.18-.92-.66-1.79-1.38-2.43.24-.09.44-.19.56-.28-1.22,0-2.43-.62-3.1-.62-.43,0-.7.26-.7.59.03.38.41.76,1.13.76.16,0,.37-.02.6-.06.39.54.7,1.03.7,1.73,0,1.31-1.57,2.33-3.15,2.33-.09,0-.18,0-.26-.01-.14-.32-.62-.87-.62-1.49,0-1.04.68-1.89.68-2.92,0-.64-.31-1.04-.43-1.2.19-.18.41-.4.46-.55-.11.05-.25.06-.44.06-.76,0-1.38-.2-1.98-.2-.34,0-.44.11-.44.21,0,.04,0,.08.02.09-.13-.05-.25-.08-.39-.11-.18-.03-.37-.05-.57-.05-.73,0-.99.31-.99.57,0,.22.18.63.37.94.28-.14.63-.24.78-.24.39,0,.73.37.92.81-.26.03-.31.04-.57.04-.71,0-1.2-.26-1.3-.26,0,0-.03,0-.03.02,0,.1.2.36.6.51.52.19,1.31.27,1.44.29,0,.02-.13.27-.28.32-.03,0-.06.01-.09,0-.55-.11-.7-.15-1.4-.42-.02,0-.03,0-.03.03,0,.28.71.88,1.35,1.12-.53.68-1.2,1.38-1.51,2.44-.09,0-.18.01-.26.01-1.58,0-3.15-1.02-3.15-2.33,0-.7.31-1.19.7-1.73.23.04.43.06.6.06.72,0,1.11-.38,1.13-.76,0-.34-.27-.59-.7-.59-.67,0-1.88.62-3.1.62.12.09.32.19.56.28-.72.64-1.19,1.51-1.38,2.43l-1.87,2.99c-.31.5-.98,1.48-1.98,2.25,1.21,0,2.01.03,3.04-1.59l.96-1.53c.07.2.16.39.26.58l-1.91,3.05c-.32.51-.98,1.48-1.98,2.25,1.21,0,2.01.03,3.04-1.59l1.64-2.63c.12.13.25.26.39.38l-2.32,3.71c-.32.51-.97,1.48-1.98,2.25,1.21,0,2.01.03,3.04-1.59l2.26-3.61c.15.09.3.19.46.27l-2.76,4.41c-.32.51-.97,1.48-1.98,2.25,1.21,0,2.01.03,3.04-1.59l2.84-4.54c.17.06.34.13.51.18l-3.21,5.13c-.31.5-.98,1.49-1.98,2.25,1.21,0,2.01.03,3.04-1.59l3.42-5.47s.07,0,.1.02c.09.3.16.57.16.85,0,1.72-1.13,3.24-2.48,4.41.09.04.24.05.38.05.28,0,.46-.02.59-.04-.31.71-.99,1.63-1.33,2.11-.44-.08-1.09-.14-1.51-.14s-.49.26-.49.49c0,.4.19.72.41.9.08-.2.25-.48,1.06-.48h.08c-.24.26-.99.87-.99,1.35,0,.32.35.81.82.81-.03-.1-.02-.2-.02-.27,0-.39.35-.85.64-1.18v.2c0,.93.08,1.36.68,1.36.29,0,.49-.16.56-.21-.38-.35-.4-.63-.4-1.15v-.45c0-.12,0-.28-.02-.39.21-.03.3-.03.46-.03,0,0,.84-.07,1.04.37.23-.21.56-.5.56-.83,0-.22-.1-.46-.53-.46-.16,0-.68.1-1.11.1.12-.26.63-1.01,1.08-1.56.07.21.17.44.41.63.03-.35.24-1.47.79-2.12.06.44.15.89.15,1.84,0,2.31-.56,4.02-1.74,4.35.15.27.48.51.82.51.43,0,.67-.49.91-.95.12.34.47,1.17.82,1.17s.69-.83.82-1.17c.24.46.48.95.91.95.34,0,.66-.24.82-.51-1.18-.33-1.74-2.03-1.74-4.35,0-.95.09-1.4.15-1.84.55.65.76,1.76.79,2.12.23-.19.34-.42.41-.63.45.55.96,1.3,1.08,1.56-.43,0-.95-.1-1.11-.1-.43,0-.53.24-.53.46,0,.33.33.62.56.83.2-.44,1.04-.37,1.04-.37.16,0,.25,0,.46.03-.02.11-.02.27-.02.39v.45c0,.52-.02.8-.4,1.15.07.05.27.21.56.21.59,0,.68-.43.68-1.36v-.2c.3.32.64.78.64,1.18,0,.07,0,.17-.02.27.47,0,.82-.48.82-.81,0-.49-.75-1.09-.99-1.35h.08c.82,0,.98.27,1.06.48.22-.18.41-.5.41-.9,0-.23-.05-.49-.49-.49s-1.07.06-1.51.14c-.34-.48-1.01-1.4-1.33-2.11.13.02.31.04.59.04.14,0,.29,0,.38-.05-1.35-1.17-2.48-2.69-2.48-4.41,0-.27.06-.55.16-.85.03,0,.07,0,.1-.02l3.42,5.47c1.02,1.62,1.83,1.59,3.03,1.59-1-.76-1.66-1.75-1.98-2.25l-3.21-5.13c.17-.06.35-.12.51-.18l2.84,4.54c1.02,1.62,1.83,1.59,3.04,1.59-1.01-.77-1.66-1.74-1.98-2.25l-2.76-4.41c.16-.09.31-.18.46-.27l2.26,3.61c1.02,1.62,1.83,1.59,3.03,1.59-1.01-.77-1.66-1.74-1.98-2.25l-2.32-3.71c.14-.12.27-.25.39-.38l1.64,2.63c1.02,1.62,1.83,1.59,3.03,1.59-1.01-.77-1.66-1.75-1.98-2.25l-1.91-3.05c.1-.19.19-.38.26-.58l.96,1.53h-.05Z"/>
  </g>
</svg>
