<svg xmlns="http://www.w3.org/2000/svg" width="49" height="33" style="background:#fff"><g fill="none" fill-rule="evenodd"><path fill="#FFF" d="M0 0h49v33H0z"/><path fill="#F2CC00" d="M46.857 22H49v10h-5V22z"/><path fill="#DB2A1B" d="M46.857 12H49v10h-5V12z"/><path fill="#131413" d="M49 2v10h-5V2zM20.5273573 12.1853338c.039704-.3285829.0623485-.6684362.0623485-1.015564 0-.1893425.0015231-.40891-.0212229-.6584978 2.9009283-.041598 5.4458409-2.15018428 5.4458409-4.57598065 0-1.23441437-.7976334-2.16616772-1.2482887-2.72190009.1016462-.02161864.2032924-.04610611.3056495-.07120833.425066.3730497 1.6313151 1.69793451 1.6313151 3.37179139 0 2.91001303-2.8830563 5.61121658-6.1756424 5.67135948zM17.6041908 2.05069752c-.0540218-.32438213-.1762815-.61823177-.3625145-.87007361.0092406-.29702584.1301803-.5803223.6035816-.34723028-.2559942.2646491-.0583882.73247248-.0583882.73247248s.5239705-.24538699.415927-.59394922c.7770198.18790803.2182195 1.24076677-.5986059 1.07878063zm-.6745613 1.4938381c-.1037786-.43462697-.3241306-.88144645-.6058155-1.21781617-.2556895-.30481264-.6795369-.66700179-1.2496087-.66700179-.2608683 0-.6973073.12264227-.9752351.2409813-.104591-.19005965-.3070711-.65060851-.3070711-.85788111 0-.21290779.3575388-.42888932 1.039919-.42888932 1.5021504 0 2.3999068.68575161 2.3999068 1.83410123 0 .4030699-.1585112.7709967-.3020954 1.09650586zm3.8584946 19.53720988c.1741491 0 .2595481.0287907.360382.0660854.4329865 1.187796 2.0991315 3.4269138 2.1689942 3.5230195l.0155364.0200817.0248784-.0056351c.4081081-.0660855 1.4521904-.2254077 2.32649-.2254077h.0192935c.0951474 0 .2026832 0 .2714289.0674174.0562558.0574789.0845867.1579903.0845867.2997922 0 .21967-.0923041.5939492-.20248.7547058-.3063603-.3371893-.8026091-.4877002-1.5965869-.4877002-.2395439 0-.5217366.0716182-.6746629.1119866l-.0624499.0141392-.0718937.0186474.4592866.4633152c.7072587.7130055 1.3192684 1.3283684 1.3192684 1.7386104 0 .2467189-.2387315.5682322-.4583727.711571-.0469136-.7517346-.7989534-1.7558233-1.5304813-2.318113l-.0627546-.0473356-.0119823.2639319c-.0106621.1793016-.0263.4488686-.0263.7358536 0 1.4302117-.1436857 1.6468079-.6348573 1.6468079-.0752446 0-.1903963-.0214137-.2621884-.04877.2765062-.344259.3859713-.8005046.3859713-1.5994723l-.0042648-.3685416-.0035541-.2970258c0-.327046.0334082-.5695642.0597083-.7645418l.0142162-.1105522-.0774786-.0099385c-.2295925-.0329915-.6568925-.0919048-.9831555-.0919048-.6994397 0-1.1741611.0645485-1.5183975.391697-.2266477-.1851416-.4598958-.5034787-.4598958-.7058334 0-.2983578.184202-.3213083.425066-.3213083.1222598 0 .2360913.0172129.3937902.0372947.3008769.0444668.7543754.1117817 1.6869617.1117817h.0574743l-.0177704-.0571716c-.2367006-.6828828-.8856726-1.6757011-1.9270132-2.9523282.0938272-.3413902.1856236-.5651585.5132068-.5651585zm-8.9887346 3.5174867l-.0185826.0571716h.0576773c.9325863 0 1.3868972-.0673149 1.6876725-.1117817.1576989-.0200818.2707181-.0372947.3929779-.0372947.2409655 0 .4258784.0229505.4258784.3213083 0 .2023547-.2340605.5206918-.4598959.7058334-.3442364-.3271485-.819567-.391697-1.5183975-.391697-.3270754 0-.7542738.0589133-.9839679.0919048l-.0361499.0042008-.0405163.0057377.0134039.1105522c.0271124.1949776.0604191.4374958.0604191.7645418l-.0042649.2970258-.0034525.3685416c0 .7989677.1087543 1.2552133.3859713 1.5994723-.0717921.0273563-.1876546.04877-.2628992.04877-.4913746 0-.6341464-.2165962-.6341464-1.6468079 0-.286985-.0156379-.556552-.0256908-.7358536l-.0135055-.2653663-.06245.04877c-.7309185.5622897-1.48366919 1.5663784-1.52905966 2.318113-.22045349-.1433388-.45867729-.4648521-.45867729-.711571 0-.410242.61079121-1.0256049 1.31804985-1.7386104l.4073972-.4103444.0511786-.0529708-.1336328-.0327866c-.1522155-.0403684-.43440815-.1119866-.67466284-.1119866-.79407935 0-1.28961736.1505109-1.59658691.4877002-.10946516-.1607566-.20187081-.5350358-.20187081-.7547058 0-.1418019.0277217-.2423133.08377436-.2997922.06965964-.0674174.17699236-.0674174.27173354-.0674174h.01969967c.87358883 0 1.91858509.1593222 2.32669309.2254077l.0241676.0056351.0156379-.0200817c.070472-.0961057 1.736617-2.3352235 2.1696035-3.5230195.0994123-.0372947.186233-.0660854.3595697-.0660854.3283955 0 .4194811.2237683.5140192.5651585-1.042153 1.2766271-1.6904142 2.2694454-1.9271149 2.9523282zM7.29821879 6.51397432c0-1.67385688 1.20645226-2.99874169 1.63141672-3.37179139.10245858.02510222.2041048.04958969.30575102.07120833-.45146762.55573237-1.24828868 1.48748572-1.24828868 2.72190009 0 2.44936172 2.59456795 4.57741505 5.53184915 4.57741505-.0184811.2095267-.0291433.4304262-.0291433.6570634 0 .3614719.0199028.6984564.0554434 1.015564-3.3219324-.0200818-6.24702831-2.74064993-6.24702831-5.67135948zM29.5813851 11.6746829c1.489965 2.3783583 2.657221 2.3381948 4.4186149 2.3381948-1.4578769-1.1275507-2.4218405-2.570672-2.8810255-3.3078576L28.3963587 6.309673c-.2658439-1.35777384-.9617296-2.62651166-2.0031718-3.57045751.3498215-.13411756.6412547-.27468998.8168254-.40891-1.7778441 0-3.5394411-.91074945-4.5089897-.91074945-.6233827 0-1.0243827.3757136-1.0243827.87273752.0405164.55306845.6049017 1.116895 1.6484763 1.116895.2367006 0 .538796-.03165953.8708471-.08688441.5651977.79476696 1.0207271 1.51279285 1.0207271 2.53768055 0 1.92436676-2.2803888 3.42414743-4.5820004 3.42414743-.1302818 0-.2537601-.00502044-.3840419-.01516379-.2088774-.47622493-.9019198-1.27806149-.9019198-2.18819619 0-1.52918613.9880297-2.77794463.9880297-4.29288909 0-.94087211-.4549202-1.52334603-.6297801-1.76576173.2828019-.2646491.592107-.59036318.6637975-.81279957-.1641977.07120833-.3582496.08114676-.6432855.08114676C18.6243086.29046852 17.7249274 0 16.8478861 0c-.4998029 0-.6347558.15635096-.6347558.3049151 0 .05368801.0084282.1096301.0226445.13688394-.1869438-.074487-.3617021-.12202752-.5700718-.16126895-.2579235-.04958969-.5373744-.0746919-.8338849-.0746919-1.0655082 0-1.4443714.45112271-1.4443714.83697966 0 .3271485.2550802.92386408.5445841 1.37785562.4158254-.21014142.9141051-.35358267 1.1421745-.35358267.5650961 0 1.068453.54374478 1.3350078 1.18779597-.3802848.04579874-.4534985.06301169-.8380482.06301169-1.0370758 0-1.7430143-.3749964-1.8887309-.3749964-.0143178 0-.0418364.00717206-.0418364.03012266 0 .14702728.2941749.53503585.8742996.7487633.7635144.28186205 1.9086337.39948387 2.0991315.4311434 0 .03370869-.1940519.39876666-.4102405.46843812-.0461013.01485642-.0816419.01639329-.1349529.0056352-.7984457-.15921979-1.0208286-.22653471-2.0331274-.61536295-.0311742-.01157775-.0489445.00788927-.0489445.0407783 0 .40368465 1.0363649 1.29547936 1.9646863 1.63686952-.7754967.99917073-1.7444359 2.02118961-2.2006762 3.57967873-.1294694.01014335-.2544709.01516379-.3846512.01516379-2.3016116 0-4.58220339-1.49978067-4.58220339-3.42414743 0-1.0248877.45634176-1.74291359 1.02153941-2.53768055.33194958.05522488.63333418.08688441.87003478.08688441 1.0436761 0 1.6085692-.56382655 1.6499994-1.116895 0-.49702392-.4009999-.87273752-1.0258043-.87273752-.9695485 0-2.72972392.91074945-4.50898969.91074945.17557074.13422002.46700395.27479244.81672381.40891-1.04134063.94394585-1.73722628 2.21268367-2.00307023 3.57045751l-2.72200653 4.3953471C2.42397291 11.4422057 1.45706452 12.885327 0 14.0128777c1.76139391 0 2.92936075.0401635 4.42003656-2.3381948l1.3954269-2.25366684c.10377866.29262014.23111568.57745347.38018326.85634424l-2.7758252 4.4814119c-.46202826.7431281-1.41878218 2.1747742-2.8824471 3.30796 1.76149545 0 2.92936074.0417004 4.41922419-2.3354284l2.38995544-3.8601064c.17841399.1923138.36688091.3802218.56519766.5595234l-3.37229862 5.4467714c-.46344989.7443576-1.41522811 2.1718029-2.88183784 3.3049888 1.761597 0 2.92936075.0430323 4.41942729-2.335326l3.28689954-5.3106047c.21679788.1377036.43877454.2726408.66765622.3988691l-4.01294395 6.4782165c-.46263753.7458945-1.41512657 2.1689341-2.88102548 3.3049887 1.76149546 0 2.92946229.041598 4.41942729-2.3353259l4.13144664-6.6731941c.244418.0945688.4925932.1849368.7450332.2668007L7.76461347 22.516587c-.45644331.7345216-1.43025673 2.1832782-2.88051776 3.3050912 1.76088619 0 2.92885303.0400611 4.41881802-2.3354284l4.97599367-8.0360908c.0503661.0087089.1008338.0172129.1498799.0273563.1357652.4346269.2304049.8392337.2304049 1.243738 0 2.5246684-1.6420789 4.7553847-3.6132641 6.4765772.1258138.0560445.3454549.0746919.5486458.0746919.4066864 0 .6697887-.0214138.8536861-.0545077-.456951 1.0471211-1.4372633 2.3999769-1.9326998 3.1000727-.64551946-.1177243-1.5836907-.2095267-2.19874679-.2095267-.64318396 0-.71578841.3802217-.71578841.7185382 0 .5896459.27295209 1.0586988.59149773 1.3198643.11860418-.3012266.35896042-.7042965 1.54754083-.7042965.02264446 0 .06387159.0027664.11931499.0071721-.34758742.3901602-1.43502933 1.2766271-1.43502933 1.9909645 0 .4734585.5146284 1.1820583 1.19203292 1.1820583-.04061787-.1520477-.03482982-.2926202-.03482982-.3973323 0-.5795026.50741878-1.2566477.93695268-1.728467-.0127946.1405725-.0063973.1262283-.0063973.2896489 0 1.3686344.1228691 1.996907.9831555 1.996907.4221212 0 .7135545-.2339116.8136775-.3040954-.5592065-.5193598-.5878421-.9267329-.5878421-1.694246.0015232-.1993833.002234-.3944634.0049757-.664133.002234-.1749983-.0006093-.4072707-.0290418-.5751994.3083912-.0430324.4329865-.0430324.6696871-.0430324 0 0 1.2225979-.09754 1.5168744.5436424.3319495-.3069643.8139821-.7402593.8139821-1.2179187 0-.3154682-.1486614-.6727394-.7784415-.6727394-.2381223 0-.9880297.1477445-1.6157788.1477445.1684626-.3786849.9191823-1.4861538 1.5696775-2.2895272.0979906.3112675.2515262.6484569.5928178.9238641.0469137-.516491.3474859-2.1516187 1.1479626-3.1070399.0931164.6453832.2189303 1.3081842.2189303 2.7054044 0 3.3982255-.8096157 5.9086522-2.5292748 6.3878485.223906.393029.6967996.7458944 1.1880727.7458944.6282569 0 .9715795-.7173086 1.3205885-1.3943513C15.9940985 30.7749093 16.4967446 32 17 32s1.0066124-1.2250907 1.1885804-1.7242662c.349009.6770427.6916208 1.3943513 1.32069 1.3943513.4912732 0 .9646744-.3528654 1.1885804-.7458944-1.7195575-.4791963-2.5299855-2.989623-2.5299855-6.3878485 0-1.3972202.1252046-2.0600212.2182195-2.7054044.8011875.9554212 1.1025721 2.5905489 1.1488764 3.1070399.3411901-.2754072.495335-.6125966.5934271-.9238641.6497844.8033734 1.4004026 1.9108423 1.5696776 2.2895272-.62846 0-1.3783674-.1477445-1.6165912-.1477445-.6289677 0-.7776291.3572712-.7776291.6727394 0 .4776594.4820325.9109544.8139821 1.2179187.2935656-.6411824 1.5168743-.5436424 1.5168743-.5436424.2367006 0 .3610929 0 .6697887.0430324-.0285341.1679287-.0306665.4002011-.0293464.5751994.0029447.2696696.0036556.4647497.0044679.664133 0 .7675131-.028534 1.1748862-.5873344 1.694246.1003262.0701838.3917594.3040954.8131698.3040954.8608957 0 .9838663-.6282726.9838663-1.996907 0-.1634206.0049757-.1490764-.0063973-.2896489.4287216.4718193.9369527 1.1489644.9369527 1.728467 0 .1047121.0057881.2452846-.0355406.3973323.6782168 0 1.1927437-.7085998 1.1927437-1.1820583 0-.7143374-1.0875434-1.6008043-1.4358417-1.9909645.0567635-.0044057.0966706-.0071721.1194166-.0071721 1.1892912 0 1.4289366.4030699 1.5482516.7042965.3177333-.2611655.5905838-.7302184.5905838-1.3198643 0-.3383165-.0716905-.7185382-.7150776-.7185382-.614853 0-1.5532273.0918024-2.1992545.2095267-.4954365-.7000958-1.4750379-2.0529516-1.9328013-3.1000727.1839989.0330939.447812.0545077.853686.0545077.2040033 0 .4229336-.0186474.5494583-.0746919-1.9711852-1.7211925-3.613975-3.9519088-3.613975-6.4765772 0-.4045043.0952489-.8091111.2303034-1.243738.049046-.0101434.1002245-.0186474.1506922-.0273563l4.9752829 8.0360908c1.4898634 2.3754895 2.6586426 2.3354284 4.4187165 2.3354284-1.450058-1.121813-2.4240745-2.5705696-2.8790962-3.3050912l-4.6702426-7.5396817c.2530493-.0818639.501123-.1722319.7457441-.2668007l4.1315481 6.6731941c1.4897619 2.3769239 2.6571195 2.3353259 4.4192242 2.3353259-1.4664066-1.1360546-2.4181849-2.5590942-2.881127-3.3049887l-4.0126393-6.4782165c.2280693-.1262283.4507568-.2611655.6660315-.3988691l3.2884227 5.3106047c1.4905742 2.3783583 2.657221 2.335326 4.4180056 2.335326-1.4650865-1.1331859-2.4169663-2.5606312-2.881127-3.3049888l-3.3715878-5.4467714c.1983168-.1793016.3874945-.3672096.5643853-.5595234l2.3905647 3.8601064c1.4900666 2.3771288 2.657221 2.3354284 4.4194273 2.3354284-1.4650865-1.1331858-2.419708-2.5648319-2.8824471-3.30796l-2.7758252-4.4814119c.1491691-.27889077.2764046-.5637241.3801833-.85634424l1.3954269 2.25366684z"/></g></svg>