<?xml version="1.0" encoding="UTF-8"?>
<svg id="Ebene_1" data-name="Ebene 1" xmlns="http://www.w3.org/2000/svg" viewBox="0 0 158.18 104.53">
  <defs>
    <style>
      .cls-1 {
        fill: #fff;
      }

      .cls-2 {
        fill: #fc0;
      }

      .cls-3 {
        fill: red;
      }
    </style>
  </defs>
  <path class="cls-1" d="m0,0h158.18v104.53H0V0Z"/>
  <path d="m37.45,30.08c.03-.22.04-.45.04-.69,0-.13,0-.28-.02-.45,1.99-.03,3.74-1.46,3.74-3.12,0-.84-.55-1.47-.86-1.85.07-.02.14-.03.21-.05.29.25,1.12,1.16,1.12,2.3,0,1.98-1.98,3.82-4.24,3.86m-2.01-6.9c-.04-.22-.12-.42-.25-.59,0-.2.09-.4.41-.24-.18.18-.04.5-.04.5,0,0,.36-.17.28-.4.53.13.15.85-.41.74m-.46,1.02c-.07-.3-.22-.6-.42-.83-.18-.21-.47-.46-.86-.46-.18,0-.48.08-.67.16-.07-.13-.21-.44-.21-.58s.24-.29.71-.29c1.03,0,1.65.47,1.65,1.25,0,.27-.11.52-.21.75m2.65,13.3c.12,0,.18.02.25.05.3.81,1.44,2.33,1.49,2.4h.01s.02.01.02.01c.28-.05,1-.15,1.6-.15h.01c.07,0,.14,0,.19.05.04.04.06.11.06.2,0,.15-.06.4-.14.51-.21-.23-.55-.33-1.1-.33-.16,0-.36.05-.46.08h-.04s-.05.02-.05.02l.32.32c.49.49.91.91.91,1.18,0,.17-.16.39-.31.48-.03-.51-.55-1.19-1.05-1.58l-.04-.03v.18c-.02.12-.03.31-.03.5,0,.97-.1,1.12-.44,1.12-.05,0-.13-.01-.18-.03.19-.24.27-.55.27-1.09v-.25s0-.2,0-.2c0-.22.02-.39.04-.52v-.08s-.04,0-.04,0c-.16-.02-.45-.06-.68-.06-.48,0-.81.04-1.04.27-.16-.13-.32-.34-.32-.48,0-.2.13-.22.29-.22.08,0,.16.01.27.02.21.03.52.08,1.16.08h.04v-.04c-.17-.47-.62-1.14-1.34-2.01.06-.23.13-.39.35-.39m-6.17,2.4v.04s.03,0,.03,0c.64,0,.95-.05,1.16-.08.11-.01.19-.02.27-.02.16,0,.29.02.29.22,0,.14-.16.35-.31.48-.24-.22-.56-.27-1.04-.27-.23,0-.52.04-.68.06h-.03s-.03,0-.03,0v.08c.03.13.05.3.05.52v.2s0,.25,0,.25c0,.54.07.85.27,1.09-.05.02-.13.03-.18.03-.34,0-.44-.15-.44-1.12,0-.2-.01-.38-.02-.5v-.18s-.05.03-.05.03c-.5.38-1.02,1.07-1.05,1.58-.15-.1-.32-.32-.32-.48,0-.28.42-.7.91-1.18l.28-.28.04-.04-.09-.02c-.11-.03-.3-.08-.46-.08-.55,0-.89.1-1.1.33-.08-.11-.14-.36-.14-.51,0-.1.02-.17.06-.2.05-.05.12-.05.19-.05h.01c.6,0,1.32.11,1.6.15h.02s.01-.01.01-.01c.05-.07,1.19-1.59,1.49-2.4.07-.03.13-.05.25-.05.23,0,.29.15.35.38-.72.87-1.16,1.55-1.32,2.01m-3.09-13.67c0-1.14.83-2.04,1.12-2.3.07.02.14.03.21.05-.31.38-.86,1.01-.86,1.85,0,1.67,1.78,3.12,3.8,3.12-.01.14-.02.29-.02.45,0,.25.01.48.04.69-2.28-.01-4.29-1.87-4.29-3.86m15.31,3.51c1.02,1.62,1.83,1.59,3.03,1.59-1-.77-1.66-1.75-1.98-2.25l-1.87-2.99c-.18-.92-.66-1.79-1.38-2.43.24-.09.44-.19.56-.28-1.22,0-2.43-.62-3.1-.62-.43,0-.7.26-.7.59.03.38.41.76,1.13.76.16,0,.37-.02.6-.06.39.54.7,1.03.7,1.73,0,1.31-1.57,2.33-3.15,2.33-.09,0-.18,0-.26-.01-.14-.32-.62-.87-.62-1.49,0-1.04.68-1.89.68-2.92,0-.64-.31-1.04-.43-1.2.19-.18.41-.4.46-.55-.11.05-.25.06-.44.06-.76,0-1.38-.2-1.98-.2-.34,0-.44.11-.44.21,0,.04,0,.08.02.09-.13-.05-.25-.08-.39-.11-.18-.03-.37-.05-.57-.05-.73,0-.99.31-.99.57,0,.22.18.63.37.94.28-.14.63-.24.78-.24.39,0,.73.37.92.81-.26.03-.31.04-.57.04-.71,0-1.2-.26-1.3-.26,0,0-.03,0-.03.02,0,.1.2.36.6.51.52.19,1.31.27,1.44.29,0,.02-.13.27-.28.32-.03,0-.06.01-.09,0-.55-.11-.7-.15-1.4-.42-.02,0-.03,0-.03.03,0,.28.71.88,1.35,1.12-.53.68-1.2,1.38-1.51,2.44-.09,0-.18.01-.26.01-1.58,0-3.15-1.02-3.15-2.33,0-.7.31-1.19.7-1.73.23.04.43.06.6.06.72,0,1.11-.38,1.13-.76,0-.34-.27-.59-.7-.59-.67,0-1.88.62-3.1.62.12.09.32.19.56.28-.72.64-1.19,1.51-1.38,2.43l-1.87,2.99c-.31.5-.98,1.48-1.98,2.25,1.21,0,2.01.03,3.04-1.59l.96-1.53c.07.2.16.39.26.58l-1.91,3.05c-.32.51-.98,1.48-1.98,2.25,1.21,0,2.01.03,3.04-1.59l1.64-2.63c.12.13.25.26.39.38l-2.32,3.71c-.32.51-.97,1.48-1.98,2.25,1.21,0,2.01.03,3.04-1.59l2.26-3.61c.15.09.3.19.46.27l-2.76,4.41c-.32.51-.97,1.48-1.98,2.25,1.21,0,2.01.03,3.04-1.59l2.84-4.54c.17.06.34.13.51.18l-3.21,5.13c-.31.5-.98,1.49-1.98,2.25,1.21,0,2.01.03,3.04-1.59l3.42-5.47s.07.01.1.02c.09.3.16.57.16.85,0,1.72-1.13,3.24-2.48,4.41.09.04.24.05.38.05.28,0,.46-.02.59-.04-.31.71-.99,1.63-1.33,2.11-.44-.08-1.09-.14-1.51-.14s-.49.26-.49.49c0,.4.19.72.41.9.08-.2.25-.48,1.06-.48.02,0,.04,0,.08,0-.24.26-.99.87-.99,1.35,0,.32.35.81.82.81-.03-.1-.02-.2-.02-.27,0-.39.35-.85.64-1.18,0,.1,0,.09,0,.2,0,.93.08,1.36.68,1.36.29,0,.49-.16.56-.21-.38-.35-.4-.63-.4-1.15,0-.14,0-.27,0-.45,0-.12,0-.28-.02-.39.21-.03.3-.03.46-.03,0,0,.84-.07,1.04.37.23-.21.56-.5.56-.83,0-.22-.1-.46-.53-.46-.16,0-.68.1-1.11.1.12-.26.63-1.01,1.08-1.56.07.21.17.44.41.63.03-.35.24-1.47.79-2.12.06.44.15.89.15,1.84,0,2.31-.56,4.02-1.74,4.35.15.27.48.51.82.51.43,0,.67-.49.91-.95.12.34.47,1.17.82,1.17s.69-.83.82-1.17c.24.46.48.95.91.95.34,0,.66-.24.82-.51-1.18-.33-1.74-2.03-1.74-4.35,0-.95.09-1.4.15-1.84.55.65.76,1.76.79,2.12.23-.19.34-.42.41-.63.45.55.96,1.3,1.08,1.56-.43,0-.95-.1-1.11-.1-.43,0-.53.24-.53.46,0,.33.33.62.56.83.2-.44,1.04-.37,1.04-.37.16,0,.25,0,.46.03-.02.11-.02.27-.02.39,0,.18,0,.32,0,.45,0,.52-.02.8-.4,1.15.07.05.27.21.56.21.59,0,.68-.43.68-1.36,0-.11,0-.1,0-.2.3.32.64.78.64,1.18,0,.07,0,.17-.02.27.47,0,.82-.48.82-.81,0-.49-.75-1.09-.99-1.35.04,0,.07,0,.08,0,.82,0,.98.27,1.06.48.22-.18.41-.5.41-.9,0-.23-.05-.49-.49-.49s-1.07.06-1.51.14c-.34-.48-1.01-1.4-1.33-2.11.13.02.31.04.59.04.14,0,.29-.01.38-.05-1.35-1.17-2.48-2.69-2.48-4.41,0-.27.06-.55.16-.85.03,0,.07-.01.1-.02l3.42,5.47c1.02,1.62,1.83,1.59,3.03,1.59-1-.76-1.66-1.75-1.98-2.25l-3.21-5.13c.17-.06.35-.12.51-.18l2.84,4.54c1.02,1.62,1.83,1.59,3.04,1.59-1.01-.77-1.66-1.74-1.98-2.25l-2.76-4.41c.16-.09.31-.18.46-.27l2.26,3.61c1.02,1.62,1.83,1.59,3.03,1.59-1.01-.77-1.66-1.74-1.98-2.25l-2.32-3.71c.14-.12.27-.25.39-.38l1.64,2.63c1.02,1.62,1.83,1.59,3.03,1.59-1.01-.77-1.66-1.75-1.98-2.25l-1.91-3.05c.1-.19.19-.38.26-.58l.96,1.53Z"/>
  <g>
    <path d="m52.78,22.78h3.5v20h-3.5v-20Z"/>
    <path class="cls-3" d="m52.78,42.78h3.5v20h-3.5v-20Z"/>
    <path class="cls-2" d="m52.78,62.78h3.5v20h-3.5v-20Z"/>
  </g>
  <g>
    <path d="m68.39,24.81c0,.29-.04.54-.11.76-.07.22-.17.4-.29.56-.12.16-.27.28-.43.38-.16.1-.33.17-.51.22v.02c.22.04.42.12.61.23.19.11.35.25.49.42s.25.37.34.59c.08.23.13.48.13.75,0,.33-.06.63-.17.9-.11.27-.29.51-.52.71s-.53.36-.89.47c-.36.11-.79.17-1.28.17h-1.69v-8.28h1.6c.49,0,.91.05,1.25.15.35.1.63.24.86.43.22.18.39.41.49.67.1.26.15.55.15.87Zm-1.06.04c0-.38-.14-.7-.41-.95s-.7-.37-1.28-.37h-.55v2.86h.54c.56,0,.98-.14,1.27-.41.29-.27.43-.65.43-1.13Zm.16,3.82c0-.45-.15-.8-.44-1.06s-.71-.39-1.25-.39h-.71v2.9h.65c.62,0,1.06-.12,1.34-.37.28-.24.41-.61.41-1.09Z"/>
    <path d="m73.92,30.98h-.89v-.65h-.02s-.08.12-.16.21c-.08.09-.18.18-.31.26s-.27.16-.45.22c-.18.06-.37.1-.59.1-.26,0-.49-.04-.69-.11-.2-.08-.38-.2-.52-.37s-.25-.39-.33-.65c-.08-.27-.11-.6-.11-.99v-3.78h.97v3.71c0,.48.08.82.23,1.03.16.2.4.31.73.31.28,0,.52-.07.71-.21.19-.14.34-.28.46-.41v-4.42h.97v5.76Z"/>
    <path d="m78.55,30.98v-3.71c0-.49-.08-.84-.25-1.05s-.41-.32-.75-.32c-.29,0-.53.07-.72.22-.19.14-.34.28-.46.42v4.44h-.97v-5.76h.89v.65h.02s.08-.12.16-.21c.08-.09.18-.18.31-.26s.28-.16.46-.22c.18-.06.38-.1.6-.1.26,0,.49.04.7.11.21.08.38.2.53.37s.26.39.34.65c.08.27.12.6.12.99v3.78h-.97Z"/>
    <path d="m80.71,28.19c0-.58.08-1.07.23-1.46.15-.39.35-.71.59-.95s.51-.41.82-.51c.3-.1.61-.15.91-.15.18,0,.34.01.48.04.14.03.25.06.34.1v-2.76l.97-.11v8.59h-.89v-.61h-.02s-.07.11-.13.2c-.06.08-.15.17-.26.25s-.25.16-.42.22c-.17.06-.36.09-.59.09-.27,0-.53-.05-.77-.16-.24-.11-.46-.28-.64-.52-.18-.24-.33-.54-.44-.91-.11-.37-.16-.82-.16-1.35Zm2.28,2.08c.15,0,.29-.02.41-.06s.22-.09.31-.15c.09-.06.16-.12.22-.19.06-.06.11-.12.14-.17v-3.55c-.09-.06-.19-.1-.31-.14-.12-.04-.26-.06-.44-.06-.22,0-.43.04-.63.11s-.37.2-.51.38c-.14.18-.26.4-.34.68-.08.28-.13.62-.13,1.03s.03.73.1,1c.07.27.16.48.28.65s.26.28.41.35c.15.07.31.11.48.11Z"/>
    <path d="m90.23,27.17c0,.25,0,.46-.02.64-.02.18-.03.34-.05.47h-2.94c.03.68.18,1.18.44,1.5.26.32.63.48,1.12.48.17,0,.32-.02.46-.06.14-.04.25-.09.35-.14s.18-.11.25-.17c.07-.06.12-.1.15-.13l.36.68s-.1.1-.18.17-.19.15-.32.23c-.14.08-.3.14-.5.2-.2.06-.44.08-.71.08-.36,0-.69-.06-.98-.18s-.54-.31-.74-.56-.36-.57-.47-.96c-.11-.39-.17-.85-.17-1.4,0-.51.06-.95.17-1.33.12-.37.27-.68.47-.92.2-.24.43-.42.7-.53.26-.12.55-.17.85-.17.55,0,.98.17,1.3.52.31.35.47.87.47,1.57Zm-1.82-1.3c-.34,0-.62.14-.83.43s-.33.7-.36,1.25h2.1s.01-.1.02-.17c0-.08,0-.16,0-.25,0-.4-.08-.71-.24-.93-.16-.22-.39-.33-.7-.33Z"/>
    <path d="m94.01,26.39c-.06-.07-.18-.17-.35-.29s-.39-.19-.66-.19c-.26,0-.45.06-.59.18-.14.12-.2.26-.2.43,0,.22.06.39.19.53.12.14.31.29.57.45l.36.22c.39.23.7.48.92.75.22.27.34.61.34,1.04,0,.46-.16.84-.47,1.15-.32.31-.77.47-1.36.47-.23,0-.44-.02-.61-.07-.18-.05-.33-.1-.46-.17-.13-.06-.24-.13-.33-.21-.09-.08-.16-.15-.22-.21l.47-.77s.11.1.17.17c.07.06.15.13.25.19.1.06.2.11.32.15.12.04.26.06.42.06.29,0,.51-.06.66-.19.15-.13.23-.28.23-.47,0-.14-.02-.25-.05-.35-.04-.1-.09-.19-.16-.27-.07-.08-.16-.16-.26-.23-.1-.07-.22-.15-.36-.24l-.36-.23c-.36-.23-.64-.48-.85-.73s-.31-.58-.31-.98c0-.22.04-.41.13-.59.08-.18.2-.34.35-.47.15-.13.33-.24.53-.31s.42-.11.65-.11.42.02.58.07.3.1.41.17.21.14.29.2.14.13.19.17l-.42.7Z"/>
    <path d="m100.02,27.84c0,.62-.07,1.13-.22,1.55-.14.42-.34.75-.58,1s-.52.43-.84.54c-.32.11-.66.16-1.02.16-.23,0-.44-.02-.62-.07-.18-.04-.34-.1-.48-.16-.14-.06-.25-.12-.34-.19-.09-.06-.16-.12-.21-.16v-8.03l.97-.08v3.36h.02c.04-.06.1-.14.17-.22.08-.08.17-.16.28-.23.11-.07.25-.13.4-.18s.33-.07.52-.07c.59,0,1.06.22,1.41.67.35.44.52,1.14.52,2.09Zm-1.01.12c0-.72-.11-1.24-.32-1.57s-.51-.49-.89-.49c-.3,0-.54.06-.7.19s-.3.26-.41.4v3.54c.07.05.17.1.29.15s.26.08.43.08c.23,0,.45-.04.64-.11.2-.08.37-.2.51-.38.14-.18.26-.42.34-.71s.12-.66.12-1.09Z"/>
    <path d="m104.95,27.17c0,.25,0,.46-.02.64-.02.18-.03.34-.05.47h-2.94c.03.68.18,1.18.44,1.5.26.32.63.48,1.12.48.17,0,.32-.02.46-.06.14-.04.25-.09.35-.14s.18-.11.25-.17c.07-.06.12-.1.15-.13l.36.68s-.1.1-.18.17-.19.15-.32.23c-.14.08-.3.14-.5.2-.2.06-.44.08-.71.08-.36,0-.69-.06-.98-.18s-.54-.31-.74-.56-.36-.57-.47-.96c-.11-.39-.17-.85-.17-1.4,0-.51.06-.95.17-1.33.12-.37.27-.68.47-.92.2-.24.43-.42.7-.53.26-.12.55-.17.85-.17.55,0,.98.17,1.3.52.31.35.47.87.47,1.57Zm-1.82-1.3c-.34,0-.62.14-.83.43s-.33.7-.36,1.25h2.1s.01-.1.02-.17c0-.08,0-.16,0-.25,0-.4-.08-.71-.24-.93-.16-.22-.39-.33-.7-.33Z"/>
    <path d="m109.39,30.98v-3.71c0-.49-.08-.84-.25-1.05s-.41-.32-.75-.32c-.29,0-.53.07-.72.22-.19.14-.34.28-.46.42v4.44h-.97v-8.48l.97-.11v3.42h.02s.08-.11.15-.19c.07-.08.16-.16.28-.24.12-.08.27-.15.44-.21.17-.06.37-.09.61-.09.5,0,.9.16,1.2.49s.44.87.44,1.63v3.78h-.97Z"/>
    <path d="m111.55,28.1c0-.53.06-.98.19-1.37s.29-.7.5-.94c.21-.24.46-.42.73-.54.28-.12.57-.17.88-.17s.62.06.89.17c.27.12.51.3.71.54.2.24.36.56.47.94.12.38.17.84.17,1.37s-.06,1-.18,1.38-.29.7-.5.94-.46.42-.74.53c-.28.11-.58.17-.89.17s-.62-.06-.89-.17c-.27-.11-.51-.29-.71-.53s-.36-.56-.47-.94c-.12-.38-.17-.84-.17-1.39Zm1.94-4.54c0,.18-.06.33-.17.44-.11.11-.25.17-.41.17s-.3-.06-.41-.17-.17-.26-.17-.44.06-.33.17-.44.25-.17.41-.17.3.06.41.17c.11.11.17.26.17.44Zm1.6,4.54c0-.77-.11-1.33-.34-1.67-.22-.35-.54-.52-.94-.52s-.71.17-.93.52c-.22.35-.33.91-.33,1.67s.11,1.32.34,1.66c.22.34.54.5.94.5s.71-.17.93-.5c.22-.34.33-.89.33-1.66Zm.25-4.54c0,.18-.06.33-.17.44s-.25.17-.41.17-.3-.06-.41-.17c-.11-.11-.17-.26-.17-.44s.06-.33.17-.44c.11-.11.25-.17.41-.17s.3.06.41.17.17.26.17.44Z"/>
    <path d="m119.86,26.07s-.08-.04-.16-.06c-.08-.02-.19-.04-.32-.04-.3,0-.54.08-.71.25s-.29.34-.37.53v4.22h-.97v-5.76h.89v.78h.02c.04-.11.09-.22.16-.33.06-.11.14-.2.24-.29.1-.08.21-.15.34-.2.13-.05.29-.07.47-.07.14,0,.25.01.33.04s.15.04.2.06l-.12.86Z"/>
    <path d="m120.41,28.19c0-.58.08-1.07.23-1.46.15-.39.35-.71.59-.95s.51-.41.82-.51c.3-.1.61-.15.91-.15.18,0,.34.01.48.04.14.03.25.06.34.1v-2.76l.97-.11v8.59h-.89v-.61h-.02s-.07.11-.13.2c-.06.08-.15.17-.26.25s-.25.16-.42.22c-.17.06-.36.09-.59.09-.27,0-.53-.05-.77-.16-.24-.11-.46-.28-.64-.52-.18-.24-.33-.54-.44-.91-.11-.37-.16-.82-.16-1.35Zm2.28,2.08c.15,0,.29-.02.41-.06s.22-.09.31-.15c.09-.06.16-.12.22-.19.06-.06.11-.12.14-.17v-3.55c-.09-.06-.19-.1-.31-.14-.12-.04-.26-.06-.44-.06-.22,0-.43.04-.63.11s-.37.2-.51.38c-.14.18-.26.4-.34.68-.08.28-.13.62-.13,1.03s.03.73.1,1c.07.27.16.48.28.65s.26.28.41.35c.15.07.31.11.48.11Z"/>
    <path d="m129.92,27.17c0,.25,0,.46-.02.64-.02.18-.03.34-.05.47h-2.94c.03.68.18,1.18.44,1.5.26.32.63.48,1.12.48.17,0,.32-.02.46-.06.14-.04.25-.09.35-.14s.18-.11.25-.17c.07-.06.12-.1.15-.13l.36.68s-.1.1-.18.17-.19.15-.32.23c-.14.08-.3.14-.5.2-.2.06-.44.08-.71.08-.36,0-.69-.06-.98-.18s-.54-.31-.74-.56-.36-.57-.47-.96c-.11-.39-.17-.85-.17-1.4,0-.51.06-.95.17-1.33.12-.37.27-.68.47-.92.2-.24.43-.42.7-.53.26-.12.55-.17.85-.17.55,0,.98.17,1.3.52.31.35.47.87.47,1.57Zm-1.82-1.3c-.34,0-.62.14-.83.43s-.33.7-.36,1.25h2.1s.01-.1.02-.17c0-.08,0-.16,0-.25,0-.4-.08-.71-.24-.93-.16-.22-.39-.33-.7-.33Z"/>
    <path d="m63.58,40.1c0-.53.06-.98.19-1.37s.29-.7.5-.94c.21-.24.46-.42.73-.54.28-.12.57-.17.88-.17s.62.06.89.17c.27.12.51.3.71.54.2.24.36.56.47.94.12.38.17.84.17,1.37s-.06,1-.18,1.38c-.12.38-.29.7-.5.94-.21.24-.46.42-.74.53-.28.11-.58.17-.89.17s-.62-.06-.89-.17c-.27-.11-.51-.29-.71-.53-.2-.24-.36-.56-.47-.94-.12-.38-.17-.84-.17-1.39Zm3.54,0c0-.77-.11-1.33-.34-1.67-.22-.35-.54-.52-.94-.52s-.71.17-.93.52c-.22.35-.33.91-.33,1.67s.11,1.32.34,1.66c.22.34.54.5.94.5s.71-.17.93-.5.33-.89.33-1.66Z"/>
    <path d="m71.7,38.02h-1.18v4.97h-.97v-4.97h-.7v-.65l.7-.13v-1.15c0-.31.04-.58.13-.8.09-.22.2-.41.35-.55.14-.14.31-.25.5-.31.19-.06.4-.1.61-.1s.38.03.53.08.24.1.29.13l-.2.8s-.12-.07-.2-.1-.2-.05-.32-.05c-.23,0-.41.07-.53.22s-.18.41-.18.79v1.03h1.3l-.12.79Z"/>
    <path d="m75.19,42.98v-8.28h4.07l-.07.83h-2.95v3.06h2.72v.83h-2.72v3.56h-1.04Z"/>
    <path d="m79.99,40.1c0-.53.06-.98.19-1.37s.29-.7.5-.94c.21-.24.46-.42.73-.54.28-.12.57-.17.88-.17s.62.06.89.17c.27.12.51.3.71.54.2.24.36.56.47.94.12.38.17.84.17,1.37s-.06,1-.18,1.38-.29.7-.5.94-.46.42-.74.53c-.28.11-.58.17-.89.17s-.62-.06-.89-.17c-.27-.11-.51-.29-.71-.53s-.36-.56-.47-.94c-.12-.38-.17-.84-.17-1.39Zm3.54,0c0-.77-.11-1.33-.34-1.67-.22-.35-.54-.52-.94-.52s-.71.17-.93.52c-.22.35-.33.91-.33,1.67s.11,1.32.34,1.66c.22.34.54.5.94.5s.71-.17.93-.5c.22-.34.33-.89.33-1.66Z"/>
    <path d="m85.5,40.1c0-.53.06-.98.19-1.37s.29-.7.5-.94c.21-.24.46-.42.73-.54.28-.12.57-.17.88-.17s.62.06.89.17c.27.12.51.3.71.54.2.24.36.56.47.94.12.38.17.84.17,1.37s-.06,1-.18,1.38-.29.7-.5.94-.46.42-.74.53c-.28.11-.58.17-.89.17s-.62-.06-.89-.17c-.27-.11-.51-.29-.71-.53s-.36-.56-.47-.94c-.12-.38-.17-.84-.17-1.39Zm3.54,0c0-.77-.11-1.33-.34-1.67-.22-.35-.54-.52-.94-.52s-.71.17-.93.52c-.22.35-.33.91-.33,1.67s.11,1.32.34,1.66c.22.34.54.5.94.5s.71-.17.93-.5c.22-.34.33-.89.33-1.66Z"/>
  </g>
</svg>