<svg xmlns="http://www.w3.org/2000/svg" viewBox="0 0 207.5 80"><path d="M52.979 11.754V.978h5.294l-.094 1.077h-3.842v3.983h3.545v1.078h-3.545v4.638h-1.358zm11.4-4.966q0 .484-.031.835t-.062.617H60.46a3.332 3.332 0 00.57 1.952 1.773 1.773 0 001.46.625 2.1 2.1 0 00.593-.078 2.214 2.214 0 00.789-.406q.133-.109.2-.172l.469.89q-.078.078-.234.226a2.1 2.1 0 01-.422.3 3.026 3.026 0 01-.656.258 3.442 3.442 0 01-.921.109 3.319 3.319 0 01-1.273-.234 2.407 2.407 0 01-.968-.726 3.509 3.509 0 01-.617-1.249 6.617 6.617 0 01-.219-1.819 5.826 5.826 0 01.227-1.726 3.447 3.447 0 01.617-1.195 2.464 2.464 0 01.906-.7 2.726 2.726 0 011.109-.226 2.149 2.149 0 011.687.679 2.971 2.971 0 01.603 2.04zM62.006 5.1a1.267 1.267 0 00-1.078.562 3.069 3.069 0 00-.469 1.624h2.733a1.7 1.7 0 00.023-.227q.008-.148.008-.32a2.03 2.03 0 00-.312-1.21 1.051 1.051 0 00-.905-.429zm3.717 3.014a5.307 5.307 0 01.3-1.905 3.512 3.512 0 01.765-1.234 2.669 2.669 0 011.062-.664 3.782 3.782 0 011.187-.2 3.128 3.128 0 01.625.055 2.084 2.084 0 01.438.134V.712l1.265-.141v11.183h-1.16v-.8h-.031a1.8 1.8 0 01-.172.258 1.743 1.743 0 01-.344.328 2.069 2.069 0 01-.547.281 2.274 2.274 0 01-.765.117 2.459 2.459 0 01-1.007-.211 2.174 2.174 0 01-.836-.672 3.5 3.5 0 01-.57-1.187 6.366 6.366 0 01-.21-1.753zm2.967 2.7a1.674 1.674 0 00.531-.078 1.638 1.638 0 00.406-.2 1.726 1.726 0 00.289-.242 1.768 1.768 0 00.18-.219V5.46a1.888 1.888 0 00-.4-.187 1.771 1.771 0 00-.57-.078 2.249 2.249 0 00-.82.148 1.6 1.6 0 00-.664.492 2.546 2.546 0 00-.445.89 4.733 4.733 0 00-.164 1.343 5.4 5.4 0 00.133 1.3 2.435 2.435 0 00.367.843 1.418 1.418 0 00.531.461 1.442 1.442 0 00.626.145zm9.418-4.029q0 .484-.031.835t-.062.617h-3.827a3.332 3.332 0 00.57 1.952 1.773 1.773 0 001.46.625 2.1 2.1 0 00.593-.078 2.214 2.214 0 00.789-.406q.133-.109.2-.172l.469.89q-.078.078-.234.226a2.1 2.1 0 01-.422.3 3.026 3.026 0 01-.656.258 3.442 3.442 0 01-.921.109 3.319 3.319 0 01-1.273-.234 2.407 2.407 0 01-.968-.726 3.509 3.509 0 01-.617-1.249 6.617 6.617 0 01-.219-1.819 5.826 5.826 0 01.227-1.726 3.447 3.447 0 01.614-1.195 2.464 2.464 0 01.9-.692 2.726 2.726 0 011.109-.226 2.149 2.149 0 011.687.679 2.971 2.971 0 01.612 2.035zM75.734 5.1a1.267 1.267 0 00-1.078.562 3.069 3.069 0 00-.469 1.624h2.733a1.7 1.7 0 00.023-.227q.008-.148.008-.32a2.03 2.03 0 00-.312-1.21 1.051 1.051 0 00-.905-.429zm7.356.266a.9.9 0 00-.2-.078 1.519 1.519 0 00-.422-.047 1.292 1.292 0 00-.929.32 1.871 1.871 0 00-.476.7v5.5h-1.269v-7.5h1.156v1.012h.031a2.473 2.473 0 01.2-.43 1.537 1.537 0 01.319-.375 1.388 1.388 0 01.445-.258 1.81 1.81 0 01.617-.094 1.609 1.609 0 01.43.047q.164.047.258.078zm.734 4.482a2.178 2.178 0 01.25-1.093 2.043 2.043 0 01.672-.711 2.866 2.866 0 01.992-.39 6 6 0 011.21-.117h.39v-.718A1.94 1.94 0 0087 5.507a1.23 1.23 0 00-.945-.359 1.7 1.7 0 00-.937.242 5.624 5.624 0 00-.593.43L84 4.976a3.921 3.921 0 01.32-.281 2.681 2.681 0 01.476-.3 3.284 3.284 0 01.64-.234 3.223 3.223 0 01.812-.094 2.269 2.269 0 011.749.64 2.974 2.974 0 01.593 2.062v3.42q0 .484.031.945a5.893 5.893 0 00.062.617h-1.2l-.047-.828H87.4a1.993 1.993 0 01-.187.32 1.544 1.544 0 01-.312.328 1.877 1.877 0 01-.453.258 1.635 1.635 0 01-.625.109 1.993 1.993 0 01-.789-.156 1.938 1.938 0 01-1.062-1.1 2.29 2.29 0 01-.148-.833zm2.265 1.015a1.3 1.3 0 00.469-.078 1.5 1.5 0 00.351-.187 1.23 1.23 0 00.25-.242q.1-.133.18-.226V8.474l-.406.016a2.91 2.91 0 00-1.374.312.976.976 0 00-.469.906 1.242 1.242 0 00.266.867.947.947 0 00.732.289zM91.742 10a1.187 1.187 0 00.133.656.526.526 0 00.461.187 1.138 1.138 0 00.289-.031.988.988 0 00.18-.062l.109.937a2.668 2.668 0 01-.344.125 2.323 2.323 0 01-.672.078 1.394 1.394 0 01-1.031-.39 1.946 1.946 0 01-.39-1.39V.71l1.265-.141V10zM106.61.978v10.776h-1.31V5.679q0-.469.008-.875t.023-.718q.016-.312.031-.484h-.047q-.078.359-.32 1.163t-.554 1.726l-1.78 5.263h-1.078L99.8 6.491q-.312-.922-.554-1.726t-.32-1.165h-.047q.016.187.031.5t.023.711q.008.4.008.867v6.075H97.63V.978h1.515l2.546 7.434q.172.515.3 1.007a5.018 5.018 0 01.164.851h.031a3.888 3.888 0 01.148-.843q.133-.484.3-1l2.546-7.45h1.421zm3.467 10.776h-1.265v-7.5h1.265v7.5zm-.625-9.308a.816.816 0 01-.625-.25.92.92 0 01-.234-.656.9.9 0 01.235-.64.816.816 0 01.625-.25.8.8 0 01.609.25.9.9 0 01.234.64.92.92 0 01-.234.656.8.8 0 01-.609.25zm6.653 9.308V6.928a2.266 2.266 0 00-.32-1.367 1.157 1.157 0 00-.976-.414 1.518 1.518 0 00-.937.281 3.442 3.442 0 00-.593.547v5.779h-1.265v-7.5h1.156V5.1h.03a1.535 1.535 0 01.2-.273 1.956 1.956 0 01.406-.344 2.866 2.866 0 01.594-.283 2.275 2.275 0 01.781-.125 2.626 2.626 0 01.906.148 1.625 1.625 0 01.687.476 2.3 2.3 0 01.437.851 4.566 4.566 0 01.156 1.289v4.92h-1.265zm4.42 0h-1.265v-7.5h1.265v7.5zm-.625-9.308a.816.816 0 01-.625-.25.92.92 0 01-.234-.656.9.9 0 01.235-.64.816.816 0 01.624-.25.8.8 0 01.609.25.9.9 0 01.234.64.92.92 0 01-.234.656.8.8 0 01-.609.25zm5.8 3.326a3.185 3.185 0 00-.453-.383 1.412 1.412 0 00-.859-.242 1.122 1.122 0 00-.765.234.725.725 0 00-.266.562 1.009 1.009 0 00.242.695 3.423 3.423 0 00.742.586l.469.281a4.606 4.606 0 011.2.976 2.036 2.036 0 01.437 1.351 2.025 2.025 0 01-.617 1.5 2.418 2.418 0 01-1.773.609 3.04 3.04 0 01-.8-.094 3.476 3.476 0 01-.6-.219 1.975 1.975 0 01-.43-.273 2.849 2.849 0 01-.281-.273l.609-1q.094.094.227.219a2.05 2.05 0 00.32.242 1.967 1.967 0 00.422.2 1.729 1.729 0 00.547.078 1.3 1.3 0 00.859-.25.768.768 0 00.3-.609 1.361 1.361 0 00-.07-.461 1.055 1.055 0 00-.211-.351 1.964 1.964 0 00-.344-.3q-.2-.141-.469-.312l-.469-.3a4.522 4.522 0 01-1.1-.953 1.992 1.992 0 01-.4-1.281 1.787 1.787 0 01.625-1.382 2.243 2.243 0 01.7-.406 2.42 2.42 0 01.851-.148 2.858 2.858 0 01.75.086 2.243 2.243 0 01.539.219 2.345 2.345 0 01.368.267q.148.133.242.227zm5.435-.484h-1.64v4.155a2.031 2.031 0 00.2 1.085.781.781 0 00.687.289 1.348 1.348 0 00.484-.078 1.619 1.619 0 00.3-.141l.172 1.015a2.162 2.162 0 01-.375.2 1.981 1.981 0 01-.8.133 1.853 1.853 0 01-1.452-.539 2.653 2.653 0 01-.484-1.788V5.288h-.907v-.843l.906-.187.141-2.093h1.124v2.092h1.8zm4.732.078a.9.9 0 00-.2-.078 1.519 1.519 0 00-.422-.047 1.292 1.292 0 00-.929.32 1.871 1.871 0 00-.476.7v5.5h-1.265v-7.5h1.156v1.012h.031a2.474 2.474 0 01.2-.43 1.537 1.537 0 01.312-.375 1.388 1.388 0 01.445-.258 1.81 1.81 0 01.617-.094 1.609 1.609 0 01.43.047q.164.047.258.078zm6.247-1.109l-2.343 7.934a5.847 5.847 0 01-.992 2.077 2.08 2.08 0 01-1.694.7 1.2 1.2 0 01-.39-.055 2.119 2.119 0 01-.219-.086v-1.089q.078.031.2.07a1.131 1.131 0 00.328.039 1.256 1.256 0 001.023-.422 3.587 3.587 0 00.6-1.3l.109-.39-2.421-7.481h1.359l1.171 4.154q.172.64.312 1.195a5.765 5.765 0 01.172.992h.031a7.206 7.206 0 01.148-.984q.117-.547.289-1.187l1.062-4.17h1.249zm-89.74 19.5a5.818 5.818 0 01.242-1.78 3.467 3.467 0 01.656-1.226 2.58 2.58 0 01.953-.7 3.043 3.043 0 012.3 0 2.4 2.4 0 01.921.7 3.518 3.518 0 01.617 1.226 6.2 6.2 0 01.226 1.78 6.063 6.063 0 01-.234 1.8 3.381 3.381 0 01-.648 1.226 2.488 2.488 0 01-.961.7 3.082 3.082 0 01-1.156.219 3.005 3.005 0 01-1.156-.219 2.329 2.329 0 01-.921-.7 3.521 3.521 0 01-.617-1.218 6.236 6.236 0 01-.226-1.81zm4.607 0a4.152 4.152 0 00-.437-2.179 1.373 1.373 0 00-1.218-.679 1.355 1.355 0 00-1.21.679 4.214 4.214 0 00-.43 2.179 4.02 4.02 0 00.437 2.155 1.385 1.385 0 001.218.656 1.367 1.367 0 001.21-.656 4.081 4.081 0 00.426-2.157zm5.966-2.717h-1.535v6.46h-1.265v-6.463h-.906v-.843l.906-.172v-1.5a2.86 2.86 0 01.172-1.046 2.071 2.071 0 01.453-.718 1.657 1.657 0 01.656-.406 2.5 2.5 0 01.8-.125 1.9 1.9 0 01.687.109 2.272 2.272 0 01.375.172l-.266 1.046a1.558 1.558 0 00-.265-.133 1.117 1.117 0 00-.422-.07.843.843 0 00-.687.281 1.664 1.664 0 00-.234 1.031v1.343H63.1zm5.9-4.311v9.652h3.936l-.095 1.119h-5.2V16.727h1.359zM73.5 25.6a2.178 2.178 0 01.25-1.093 2.043 2.043 0 01.672-.711 2.866 2.866 0 01.992-.39 6 6 0 011.21-.117h.39v-.721a1.94 1.94 0 00-.336-1.312 1.23 1.23 0 00-.945-.359 1.7 1.7 0 00-.937.242 5.624 5.624 0 00-.593.43l-.531-.843a3.921 3.921 0 01.32-.281 2.681 2.681 0 01.476-.3 3.284 3.284 0 01.64-.234 3.223 3.223 0 01.812-.094 2.269 2.269 0 011.749.64 2.974 2.974 0 01.593 2.062v3.42q0 .484.031.945a5.893 5.893 0 00.062.617h-1.2l-.047-.828h-.031a1.992 1.992 0 01-.187.32 1.544 1.544 0 01-.312.328 1.877 1.877 0 01-.453.258 1.635 1.635 0 01-.625.109 1.993 1.993 0 01-.789-.156 1.938 1.938 0 01-1.062-1.1 2.29 2.29 0 01-.149-.832zm2.265 1.015a1.3 1.3 0 00.469-.078 1.5 1.5 0 00.351-.187 1.23 1.23 0 00.25-.242q.1-.133.18-.226v-1.659l-.406.016a2.91 2.91 0 00-1.374.312.976.976 0 00-.469.906 1.242 1.242 0 00.265.867.947.947 0 00.734.289zm10-3.2a6.221 6.221 0 01-.281 2.015 3.54 3.54 0 01-.75 1.3 2.672 2.672 0 01-1.093.7 4.12 4.12 0 01-1.328.211 3.5 3.5 0 01-.812-.086 3.679 3.679 0 01-.625-.2 2.665 2.665 0 01-.445-.242q-.18-.125-.273-.2V16.461l1.265-.109v4.373h.027a1.839 1.839 0 01.227-.281 1.977 1.977 0 01.367-.3 2.115 2.115 0 01.523-.234 2.3 2.3 0 01.679-.094 2.209 2.209 0 011.835.867 4.416 4.416 0 01.679 2.728zm-1.312.156a3.779 3.779 0 00-.422-2.038 1.319 1.319 0 00-1.156-.632 1.457 1.457 0 00-.914.25 3.411 3.411 0 00-.539.515v4.607a2.427 2.427 0 00.375.2 1.408 1.408 0 00.562.1 2.292 2.292 0 00.836-.148 1.572 1.572 0 00.664-.5 2.53 2.53 0 00.437-.929 5.531 5.531 0 00.153-1.429zm2.577.187a5.819 5.819 0 01.242-1.78 3.467 3.467 0 01.656-1.226 2.58 2.58 0 01.953-.7 3.043 3.043 0 012.3 0 2.4 2.4 0 01.921.7 3.519 3.519 0 01.617 1.226 6.2 6.2 0 01.226 1.78 6.062 6.062 0 01-.234 1.8 3.381 3.381 0 01-.648 1.226 2.488 2.488 0 01-.961.7 3.082 3.082 0 01-1.156.219 3.005 3.005 0 01-1.156-.219 2.329 2.329 0 01-.921-.7 3.521 3.521 0 01-.617-1.218 6.236 6.236 0 01-.226-1.811zm4.607 0a4.152 4.152 0 00-.437-2.179 1.373 1.373 0 00-1.218-.679 1.355 1.355 0 00-1.21.679 4.214 4.214 0 00-.43 2.179 4.02 4.02 0 00.437 2.155 1.385 1.385 0 001.218.656 1.367 1.367 0 001.21-.656 4.081 4.081 0 00.426-2.158zm8.148 3.742H98.63v-.84h-.03a1.53 1.53 0 01-.2.273 2.037 2.037 0 01-.4.344 2.674 2.674 0 01-.586.289 2.225 2.225 0 01-.765.125 2.56 2.56 0 01-.9-.148 1.634 1.634 0 01-.679-.476 2.218 2.218 0 01-.429-.851 4.787 4.787 0 01-.148-1.288v-4.92h1.265v4.826a2.243 2.243 0 00.3 1.335 1.114 1.114 0 00.945.4 1.521 1.521 0 00.921-.273 3.231 3.231 0 00.593-.539v-5.75h1.265v7.5zm5.232-6.388a.9.9 0 00-.2-.078 1.519 1.519 0 00-.422-.047 1.292 1.292 0 00-.929.32 1.871 1.871 0 00-.476.7v5.5h-1.265v-7.5h1.156v1.015h.031a2.474 2.474 0 01.2-.43 1.537 1.537 0 01.312-.375 1.388 1.388 0 01.445-.258 1.81 1.81 0 01.617-.094 1.609 1.609 0 01.43.047q.164.047.258.078zm3.764 4.482a2.178 2.178 0 01.25-1.093 2.043 2.043 0 01.672-.711 2.866 2.866 0 01.992-.39 6 6 0 011.21-.117h.39v-.715a1.94 1.94 0 00-.336-1.312 1.23 1.23 0 00-.945-.359 1.7 1.7 0 00-.937.242 5.624 5.624 0 00-.593.43l-.531-.843a3.92 3.92 0 01.32-.281 2.681 2.681 0 01.476-.3 3.283 3.283 0 01.64-.234 3.223 3.223 0 01.812-.094 2.269 2.269 0 011.749.64 2.974 2.974 0 01.593 2.062v3.42q0 .484.031.945a5.893 5.893 0 00.062.617h-1.2l-.047-.828h-.031a1.993 1.993 0 01-.187.32 1.544 1.544 0 01-.312.328 1.877 1.877 0 01-.453.258 1.635 1.635 0 01-.625.109 1.993 1.993 0 01-.789-.156 1.938 1.938 0 01-1.062-1.1 2.29 2.29 0 01-.149-.832zm2.265 1.015a1.3 1.3 0 00.469-.078 1.5 1.5 0 00.351-.187 1.23 1.23 0 00.25-.242q.1-.133.18-.226v-1.653l-.406.016a2.91 2.91 0 00-1.374.312.976.976 0 00-.469.906 1.242 1.242 0 00.266.867.947.947 0 00.733.289zm8.5.89v-4.822a2.266 2.266 0 00-.32-1.367 1.157 1.157 0 00-.976-.414 1.518 1.518 0 00-.937.281 3.442 3.442 0 00-.593.547V27.5h-1.27V20h1.156v.85h.031a1.535 1.535 0 01.2-.273 1.957 1.957 0 01.406-.344 2.866 2.866 0 01.593-.289 2.275 2.275 0 01.781-.125 2.626 2.626 0 01.906.148 1.625 1.625 0 01.687.476 2.3 2.3 0 01.437.851 4.566 4.566 0 01.156 1.289V27.5h-1.265zm2.811-3.639a5.307 5.307 0 01.3-1.905 3.512 3.512 0 01.765-1.234 2.669 2.669 0 011.062-.664 3.782 3.782 0 011.187-.2 3.128 3.128 0 01.625.055 2.084 2.084 0 01.437.133v-3.584l1.265-.141V27.5h-1.156v-.8h-.042a1.8 1.8 0 01-.172.258 1.743 1.743 0 01-.344.328 2.069 2.069 0 01-.547.281 2.274 2.274 0 01-.765.117 2.459 2.459 0 01-1.007-.211 2.174 2.174 0 01-.836-.672 3.5 3.5 0 01-.57-1.187 6.366 6.366 0 01-.206-1.75zm2.967 2.7a1.674 1.674 0 00.531-.078 1.638 1.638 0 00.406-.2 1.727 1.727 0 00.289-.242 1.767 1.767 0 00.18-.219v-4.612a1.888 1.888 0 00-.4-.187 1.771 1.771 0 00-.57-.078 2.249 2.249 0 00-.82.148 1.6 1.6 0 00-.664.492 2.546 2.546 0 00-.445.89 4.733 4.733 0 00-.164 1.343 5.4 5.4 0 00.133 1.3 2.435 2.435 0 00.367.843 1.418 1.418 0 00.531.461 1.442 1.442 0 00.622.145zm12.26-8.184a2.644 2.644 0 00-.211-.18 2.034 2.034 0 00-.375-.226 2.867 2.867 0 00-.531-.187 2.736 2.736 0 00-.679-.078 1.4 1.4 0 00-1.062.375 1.224 1.224 0 00-.359.875 1.865 1.865 0 00.086.578 1.98 1.98 0 00.266.523 3.555 3.555 0 00.445.515 8.469 8.469 0 00.64.554l.875.718q.375.312.711.64a4.229 4.229 0 01.578.695 3.315 3.315 0 01.383.8 3.079 3.079 0 01.141.961 2.677 2.677 0 01-.765 1.991 3.045 3.045 0 01-2.233.758 4.312 4.312 0 01-1.023-.109 4.054 4.054 0 01-.773-.266 3.223 3.223 0 01-.875-.593l.547-1.187q.094.094.281.25a3.4 3.4 0 00.453.312 3.038 3.038 0 00.6.266 2.442 2.442 0 00.757.109 1.738 1.738 0 001.226-.4 1.247 1.247 0 00.429-.945 2.134 2.134 0 00-.086-.625 2.2 2.2 0 00-.25-.539 3 3 0 00-.414-.508q-.25-.25-.593-.531l-.875-.734q-.453-.375-.8-.711a4.271 4.271 0 01-.586-.7 2.918 2.918 0 01-.367-.8 3.557 3.557 0 01-.125-.992 2.419 2.419 0 01.2-.968 2.249 2.249 0 01.554-.781 2.608 2.608 0 01.867-.515 3.3 3.3 0 011.148-.187 3.889 3.889 0 01.937.1 4.011 4.011 0 01.7.234 2.155 2.155 0 01.461.273q.172.141.266.2zm2.077 5.373a5.818 5.818 0 01.242-1.78 3.467 3.467 0 01.656-1.226 2.58 2.58 0 01.953-.7 3.043 3.043 0 012.3 0 2.4 2.4 0 01.921.7 3.518 3.518 0 01.617 1.226 6.2 6.2 0 01.226 1.78 6.062 6.062 0 01-.234 1.8 3.381 3.381 0 01-.648 1.226 2.488 2.488 0 01-.961.7 3.082 3.082 0 01-1.156.219 3.005 3.005 0 01-1.156-.219 2.329 2.329 0 01-.921-.7 3.521 3.521 0 01-.617-1.218 6.236 6.236 0 01-.225-1.802zm4.607 0a4.152 4.152 0 00-.437-2.179 1.373 1.373 0 00-1.218-.679 1.355 1.355 0 00-1.21.679 4.214 4.214 0 00-.43 2.179 4.02 4.02 0 00.437 2.155 1.385 1.385 0 001.218.656 1.367 1.367 0 001.21-.656 4.081 4.081 0 00.427-2.149zm7.075-2.3q-.047-.047-.148-.141a1.58 1.58 0 00-.258-.187 1.8 1.8 0 00-.375-.164 1.633 1.633 0 00-.5-.07 1.928 1.928 0 00-.757.148 1.526 1.526 0 00-.609.476 2.444 2.444 0 00-.406.851 4.719 4.719 0 00-.148 1.273 6.157 6.157 0 00.133 1.39 2.62 2.62 0 00.367.9 1.365 1.365 0 00.57.484 1.814 1.814 0 00.742.148 1.592 1.592 0 00.882-.2 3.015 3.015 0 00.429-.328l.515.875a2.3 2.3 0 01-.226.226 1.95 1.95 0 01-.383.258 2.572 2.572 0 01-.57.211 3.137 3.137 0 01-.773.086 3.338 3.338 0 01-1.171-.2 2.316 2.316 0 01-.953-.672 3.37 3.37 0 01-.64-1.218 6.313 6.313 0 01-.234-1.859 5.226 5.226 0 01.281-1.827 3.4 3.4 0 01.734-1.21 2.806 2.806 0 011.007-.672 3.243 3.243 0 011.859-.133 2.47 2.47 0 01.547.2 1.807 1.807 0 01.375.25q.148.133.242.227zm3.124 6.044H153.2v-7.5h1.265v7.5zm-.625-9.308a.816.816 0 01-.625-.25.92.92 0 01-.234-.656.9.9 0 01.234-.64.816.816 0 01.625-.25.8.8 0 01.609.25.9.9 0 01.234.64.92.92 0 01-.234.656.8.8 0 01-.612.26zm2.124 7.4a2.178 2.178 0 01.25-1.093 2.043 2.043 0 01.672-.711 2.867 2.867 0 01.992-.39 6 6 0 011.21-.117h.39v-.706a1.94 1.94 0 00-.336-1.312 1.23 1.23 0 00-.944-.356 1.7 1.7 0 00-.937.242 5.624 5.624 0 00-.593.43l-.531-.843a3.923 3.923 0 01.32-.281 2.681 2.681 0 01.476-.3 3.284 3.284 0 01.64-.234 3.223 3.223 0 01.812-.094 2.269 2.269 0 011.749.64 2.974 2.974 0 01.593 2.062v3.42q0 .484.031.945a5.892 5.892 0 00.062.617h-1.2l-.047-.828h-.031a1.993 1.993 0 01-.187.32 1.544 1.544 0 01-.312.328 1.877 1.877 0 01-.453.258 1.635 1.635 0 01-.625.109 1.993 1.993 0 01-.789-.156 1.938 1.938 0 01-1.062-1.1 2.29 2.29 0 01-.153-.835zm2.265 1.015a1.3 1.3 0 00.469-.078 1.5 1.5 0 00.351-.187 1.23 1.23 0 00.25-.242q.1-.133.18-.226v-1.644l-.406.016a2.91 2.91 0 00-1.374.312.976.976 0 00-.469.906 1.242 1.242 0 00.266.867.947.947 0 00.729.289zm5.654-.859a1.187 1.187 0 00.133.656.526.526 0 00.461.187 1.138 1.138 0 00.289-.031.989.989 0 00.18-.062l.109.937a2.667 2.667 0 01-.344.125 2.323 2.323 0 01-.672.078 1.394 1.394 0 01-1.031-.39 1.946 1.946 0 01-.39-1.39v-9.4l1.265-.141v9.433zm12.521 1.759h-1.5l-.968-3.452h-3.264l-.983 3.452h-1.374l3.514-10.776h1.062zm-2.764-4.482l-.842-2.949q-.172-.594-.3-1.132a5.09 5.09 0 01-.141-.9h-.029a4.5 4.5 0 01-.148.882q-.133.523-.3 1.117l-.89 2.983h2.655zm6.981-1.983h-1.531V27.5h-1.265v-6.463h-.906v-.843l.906-.172v-1.5a2.86 2.86 0 01.173-1.046 2.071 2.071 0 01.453-.718 1.657 1.657 0 01.656-.406 2.5 2.5 0 01.8-.125 1.9 1.9 0 01.687.109 2.273 2.273 0 01.375.172l-.271 1.047a1.559 1.559 0 00-.266-.133 1.116 1.116 0 00-.422-.07.843.843 0 00-.687.281 1.664 1.664 0 00-.234 1.031v1.343h1.687zm4.4 0H183.5V27.5h-1.265v-6.463h-.906v-.843l.906-.172v-1.5a2.86 2.86 0 01.172-1.046 2.071 2.071 0 01.453-.718 1.657 1.657 0 01.656-.406 2.5 2.5 0 01.8-.125 1.9 1.9 0 01.687.109 2.273 2.273 0 01.375.172l-.266 1.046a1.559 1.559 0 00-.266-.133 1.117 1.117 0 00-.422-.07.843.843 0 00-.687.281 1.664 1.664 0 00-.234 1.031v1.343h1.687zm.734 4.56a2.178 2.178 0 01.25-1.093 2.043 2.043 0 01.672-.711 2.867 2.867 0 01.992-.39 6 6 0 011.21-.117h.39v-.716a1.94 1.94 0 00-.336-1.312 1.23 1.23 0 00-.945-.359 1.7 1.7 0 00-.937.242 5.624 5.624 0 00-.593.43l-.531-.843a3.923 3.923 0 01.32-.281 2.681 2.681 0 01.476-.3 3.284 3.284 0 01.64-.234 3.223 3.223 0 01.812-.094 2.269 2.269 0 011.749.64 2.974 2.974 0 01.593 2.062v3.42q0 .484.031.945a5.892 5.892 0 00.062.617h-1.2l-.047-.828h-.031a1.993 1.993 0 01-.187.32 1.544 1.544 0 01-.312.328 1.877 1.877 0 01-.453.258 1.635 1.635 0 01-.625.109 1.993 1.993 0 01-.789-.156 1.938 1.938 0 01-1.062-1.1 2.29 2.29 0 01-.145-.832zm2.265 1.015a1.3 1.3 0 00.469-.078 1.5 1.5 0 00.351-.187 1.23 1.23 0 00.25-.242q.1-.133.18-.226v-1.654l-.406.016a2.91 2.91 0 00-1.374.312.976.976 0 00-.469.906 1.242 1.242 0 00.266.867.947.947 0 00.737.289zm5.678.89h-1.27V20h1.27v7.5zm-.625-9.308a.816.816 0 01-.625-.25.92.92 0 01-.234-.656.9.9 0 01.234-.64.816.816 0 01.625-.25.8.8 0 01.609.25.9.9 0 01.234.64.92.92 0 01-.234.656.8.8 0 01-.613.253zm5.857 2.921a.9.9 0 00-.2-.078 1.519 1.519 0 00-.422-.047 1.292 1.292 0 00-.929.32 1.871 1.871 0 00-.476.7v5.5h-1.265v-7.5h1.156v1.015h.031a2.474 2.474 0 01.2-.43 1.537 1.537 0 01.312-.375 1.388 1.388 0 01.445-.258 1.81 1.81 0 01.617-.094 1.609 1.609 0 01.43.047q.164.047.258.078zm4.42.406a3.186 3.186 0 00-.453-.383 1.412 1.412 0 00-.859-.242 1.122 1.122 0 00-.765.234.725.725 0 00-.266.562 1.009 1.009 0 00.242.695 3.424 3.424 0 00.742.586l.469.281a4.606 4.606 0 011.2.976 2.208 2.208 0 01-.18 2.85 2.418 2.418 0 01-1.773.609 3.04 3.04 0 01-.8-.094 3.476 3.476 0 01-.6-.219 1.975 1.975 0 01-.43-.273 2.848 2.848 0 01-.281-.273l.609-1q.094.094.227.219a2.05 2.05 0 00.32.242 1.967 1.967 0 00.422.2 1.729 1.729 0 00.547.078 1.3 1.3 0 00.859-.25.768.768 0 00.3-.609 1.361 1.361 0 00-.07-.461 1.055 1.055 0 00-.211-.351 1.964 1.964 0 00-.344-.3q-.2-.141-.469-.312l-.469-.3a4.522 4.522 0 01-1.1-.953 1.992 1.992 0 01-.4-1.281 1.787 1.787 0 01.625-1.382 2.243 2.243 0 01.7-.406 2.42 2.42 0 01.851-.148 2.858 2.858 0 01.75.086 2.243 2.243 0 01.539.219 2.345 2.345 0 01.375.266q.148.133.242.227zM18.505 10.887a7.578 7.578 0 00.056-.907c0-.169 0-.366-.02-.589 2.616-.037 4.91-1.921 4.91-4.088a3.923 3.923 0 00-1.124-2.433q.136-.03.276-.063a4.389 4.389 0 011.47 3.012c0 2.6-2.6 5.013-5.567 5.067M15.87 1.832a1.784 1.784 0 00-.327-.778c.009-.265.118-.518.545-.31a.67.67 0 00-.052.655.566.566 0 00.373-.531c.7.168.2 1.109-.539.965m-.608 1.334a2.74 2.74 0 00-.546-1.088 1.514 1.514 0 00-1.127-.6 2.764 2.764 0 00-.879.217 2.406 2.406 0 01-.276-.764c0-.19.322-.383.937-.383 1.354 0 2.163.612 2.163 1.638a2.446 2.446 0 01-.272.98m3.478 17.455a.8.8 0 01.325.059 18.56 18.56 0 001.956 3.147l.013.018.022-.005a14.691 14.691 0 012.1-.2h.018a.34.34 0 01.244.06.373.373 0 01.076.268 1.494 1.494 0 01-.182.673 1.847 1.847 0 00-1.44-.436 2.574 2.574 0 00-.608.1l-.056.012-.064.017.413.413a3.609 3.609 0 011.187 1.552.925.925 0 01-.412.635 3.507 3.507 0 00-1.381-2.071l-.051-.038-.01.236c-.009.16-.024.4-.024.658 0 1.277-.13 1.471-.572 1.471a.807.807 0 01-.236-.043 2.138 2.138 0 00.348-1.429V25.125a4.708 4.708 0 01.054-.684l.013-.1-.07-.009a7.164 7.164 0 00-.886-.081 1.879 1.879 0 00-1.369.349 1.083 1.083 0 01-.415-.63c0-.266.165-.287.383-.287a2.986 2.986 0 01.354.033 9.138 9.138 0 001.521.1h.052l-.017-.051a10.205 10.205 0 00-1.736-2.638.5.5 0 01.462-.505m-8.1 3.143l-.017.051h.052a9.151 9.151 0 001.521-.1 2.986 2.986 0 01.354-.033c.217 0 .383.021.383.287a1.087 1.087 0 01-.413.63 1.883 1.883 0 00-1.369-.349 7.139 7.139 0 00-.887.081h-.033l-.037.005.012.1a4.5 4.5 0 01.055.684V25.715a2.129 2.129 0 00.349 1.429.824.824 0 01-.238.043c-.444 0-.572-.194-.572-1.471 0-.257-.013-.5-.022-.658l-.013-.238-.077.048a3.5 3.5 0 00-1.379 2.071.923.923 0 01-.414-.639A3.609 3.609 0 019.1 24.75l.366-.366.047-.047-.121-.029a2.574 2.574 0 00-.609-.1 1.848 1.848 0 00-1.438.436 1.494 1.494 0 01-.182-.673.373.373 0 01.072-.271.34.34 0 01.244-.06H7.5a14.67 14.67 0 012.1.2l.022.005.013-.018a18.544 18.544 0 001.957-3.147.784.784 0 01.324-.059.5.5 0 01.463.505 10.184 10.184 0 00-1.738 2.638M6.579 5.819A4.39 4.39 0 018.05 2.807q.138.033.276.063A3.917 3.917 0 007.2 5.3c0 2.189 2.339 4.09 4.987 4.09a6.545 6.545 0 00-.026.588 8.18 8.18 0 00.05.907c-2.995-.018-5.632-2.449-5.632-5.067m20.088 4.612c1.344 2.125 2.4 2.089 3.983 2.089a11.358 11.358 0 01-2.6-2.956L25.6 5.637a5.808 5.808 0 00-1.806-3.19 3.152 3.152 0 00.736-.365c-1.6 0-3.19-.814-4.065-.814a.821.821 0 00-.923.78 1.3 1.3 0 001.486 1 5.011 5.011 0 00.785-.077 3.738 3.738 0 01.92 2.268c0 1.719-2.055 3.059-4.13 3.059-.118 0-.23-.005-.346-.013a4.658 4.658 0 01-.814-1.956c0-1.366.891-2.482.891-3.835a2.537 2.537 0 00-.568-1.582 2.4 2.4 0 00.6-.726 1.468 1.468 0 01-.58.072C16.79.259 15.979 0 15.189 0c-.451 0-.572.139-.572.272a.3.3 0 00.02.122 2.661 2.661 0 00-.514-.143 4.008 4.008 0 00-.752-.067c-.961 0-1.3.4-1.3.748a2.929 2.929 0 00.491 1.231 2.909 2.909 0 011.029-.316 1.512 1.512 0 011.2 1.06 4.534 4.534 0 01-.755.056 5.761 5.761 0 01-1.7-.335.034.034 0 00-.037.028 1.158 1.158 0 00.787.668 10.313 10.313 0 001.893.386.824.824 0 01-.37.419.212.212 0 01-.122 0 8.608 8.608 0 01-1.832-.549.032.032 0 00-.045.035 3.053 3.053 0 001.77 1.468 9.367 9.367 0 00-1.984 3.2c-.117.008-.23.013-.346.013-2.075 0-4.13-1.34-4.13-3.059a3.738 3.738 0 01.92-2.268 5 5 0 00.785.077 1.306 1.306 0 001.487-1 .822.822 0 00-.924-.78c-.874 0-2.461.814-4.066.814a3.206 3.206 0 00.736.365 5.814 5.814 0 00-1.8 3.19L2.6 9.564A11.343 11.343 0 010 12.519c1.588 0 2.641.035 3.985-2.089l1.258-2.013a5.436 5.436 0 00.343.765l-2.5 4a11.314 11.314 0 01-2.6 2.956c1.588 0 2.641.037 3.985-2.087l2.154-3.449c.161.172.331.34.509.5l-3.04 4.866a11.235 11.235 0 01-2.6 2.953c1.588 0 2.641.038 3.983-2.087L8.44 12.09c.2.123.4.243.6.356l-3.614 5.793a11.3 11.3 0 01-2.6 2.953c1.588 0 2.641.037 3.985-2.087l3.725-5.962c.22.084.444.165.671.238L7 20.117a11.354 11.354 0 01-2.6 2.953c1.587 0 2.641.037 3.983-2.087l4.489-7.183c.046.008.091.014.135.024a3.726 3.726 0 01.207 1.112c0 2.256-1.48 4.248-3.257 5.786a1.418 1.418 0 00.495.067 4.621 4.621 0 00.77-.049 18.321 18.321 0 01-1.742 2.773 12.971 12.971 0 00-1.98-.186.553.553 0 00-.646.642 1.524 1.524 0 00.533 1.179c.108-.269.324-.629 1.4-.629.021 0 .058 0 .108.007-.312.348-1.293 1.14-1.293 1.778a1.17 1.17 0 001.067 1.056 1.339 1.339 0 01-.032-.36 2.752 2.752 0 01.845-1.545 1.836 1.836 0 00-.005.26c0 1.222.11 1.784.886 1.784a1.237 1.237 0 00.734-.272 1.663 1.663 0 01-.53-1.513c0-.178 0-.353.005-.593a3.328 3.328 0 00-.026-.514 3.568 3.568 0 01.6-.038 1.567 1.567 0 011.368.486 1.784 1.784 0 00.734-1.088.585.585 0 00-.7-.6c-.215 0-.891.131-1.457.131a14.259 14.259 0 011.415-2.045 1.641 1.641 0 00.534.826 5.832 5.832 0 011.036-2.779 13.629 13.629 0 01.2 2.417c0 3.037-.73 5.28-2.28 5.708a1.329 1.329 0 001.071.667 1.744 1.744 0 001.19-1.247c.164.446.617 1.541 1.071 1.541s.905-1.086 1.072-1.537a1.742 1.742 0 001.19 1.247 1.329 1.329 0 001.071-.667c-1.55-.428-2.281-2.671-2.281-5.708a13.629 13.629 0 01.2-2.417 5.79 5.79 0 011.036 2.777 1.627 1.627 0 00.535-.826A14.37 14.37 0 0119.56 23.5c-.566 0-1.243-.131-1.457-.131a.584.584 0 00-.7.6 1.784 1.784 0 00.734 1.088 1.565 1.565 0 011.368-.486 3.583 3.583 0 01.6.038 3.172 3.172 0 00-.026.514v.593a1.664 1.664 0 01-.53 1.513 1.237 1.237 0 00.734.272c.776 0 .887-.562.887-1.784a2.038 2.038 0 00-.007-.26A2.752 2.752 0 0122.015 27a1.244 1.244 0 01-.033.356 1.171 1.171 0 001.076-1.056c0-.638-.98-1.431-1.3-1.778.051 0 .088-.007.108-.007 1.072 0 1.289.36 1.4.629a1.524 1.524 0 00.533-1.179.553.553 0 00-.646-.642 12.986 12.986 0 00-1.982.186 18.321 18.321 0 01-1.743-2.769 4.633 4.633 0 00.77.049 1.413 1.413 0 00.495-.067c-1.777-1.538-3.257-3.53-3.257-5.786a3.726 3.726 0 01.207-1.112c.043-.009.091-.016.135-.024l4.486 7.179c1.343 2.123 2.4 2.087 3.983 2.087a11.354 11.354 0 01-2.6-2.953l-4.21-6.737c.228-.072.453-.154.673-.238l3.729 5.962c1.344 2.123 2.4 2.087 3.985 2.087a11.3 11.3 0 01-2.6-2.953l-3.615-5.784c.2-.113.406-.232.6-.356l2.965 4.744c1.344 2.125 2.4 2.087 3.983 2.087a11.26 11.26 0 01-2.6-2.953l-3.04-4.866c.178-.16.349-.328.508-.5l2.156 3.449c1.343 2.123 2.4 2.087 3.983 2.087a11.314 11.314 0 01-2.6-2.956l-2.5-4a5.754 5.754 0 00.343-.765zM43.214 27.5h-4.593V1.255h4.593V27.5z"/><path fill="red" d="M43.214 53.752h-4.593V27.5h4.593v26.252z"/><path fill="#fc0" d="M43.214 80h-4.593V53.752h4.593V80z"/></svg>