<svg width="200" height="91" xmlns="http://www.w3.org/2000/svg"><g fill="none" fill-rule="evenodd"><path d="M179.239 21.858a3.23 3.23 0 00-.46-.381c-.222-.16-.513-.24-.873-.24-.338 0-.597.077-.777.232a.716.716 0 00-.27.56c0 .28.082.51.246.692.164.181.415.376.754.583l.476.28c.518.3.925.625 1.22.972.297.347.445.795.445 1.345 0 .59-.209 1.088-.626 1.493-.418.404-1.018.606-1.8.606-.307 0-.577-.031-.81-.093a3.57 3.57 0 01-.61-.218 2.015 2.015 0 01-.436-.272 2.871 2.871 0 01-.286-.272l.619-.995c.063.062.14.134.23.217a2.073 2.073 0 00.753.436c.159.052.344.077.555.077.38 0 .672-.083.873-.248a.76.76 0 00.3-.607c0-.176-.023-.329-.07-.459a1.046 1.046 0 00-.215-.35 1.986 1.986 0 00-.349-.295 18.94 18.94 0 00-.475-.31l-.476-.296c-.476-.3-.849-.617-1.118-.949-.27-.332-.405-.756-.405-1.275a1.768 1.768 0 01.635-1.376c.2-.171.436-.306.705-.404.27-.099.558-.148.865-.148.296 0 .55.029.761.086a2.31 2.31 0 01.928.482c.1.088.182.163.246.225l-.555.902zm-7.407-.669c-.455 0-.82.187-1.095.56-.275.373-.433.912-.476 1.617h2.776a1.68 1.68 0 00.024-.225 6.15 6.15 0 00.008-.319c0-.518-.106-.92-.317-1.205-.212-.285-.519-.428-.92-.428zm2.41 1.68c0 .32-.01.598-.031.832-.022.233-.043.437-.064.614h-3.886c.043.88.236 1.529.58 1.943.343.415.837.622 1.482.622.222 0 .423-.025.603-.077a2.299 2.299 0 001-.576l.475.887a13.91 13.91 0 01-.238.225 2.133 2.133 0 01-.428.296c-.18.098-.402.184-.666.256a3.562 3.562 0 01-.936.109 3.43 3.43 0 01-1.293-.233 2.44 2.44 0 01-.983-.723c-.27-.327-.479-.742-.627-1.244-.148-.503-.222-1.107-.222-1.812 0-.663.077-1.236.23-1.718.154-.482.362-.878.627-1.19.264-.31.57-.541.92-.691.349-.15.724-.226 1.126-.226.73 0 1.3.226 1.713.676.412.451.618 1.128.618 2.03zm-7.232 3.203c0 .31.045.529.135.653.09.124.245.187.467.187.117 0 .215-.01.294-.032.08-.02.14-.041.182-.062l.111.933a2.75 2.75 0 01-.349.125c-.169.052-.396.077-.682.077-.433 0-.782-.13-1.046-.388-.265-.26-.397-.72-.397-1.384V16.82l1.285-.14v9.392zm-5.742.855c.18 0 .338-.026.476-.078.137-.052.256-.114.357-.186.1-.073.185-.153.254-.241.068-.088.129-.164.182-.226v-1.648l-.412.016c-.614.02-1.079.124-1.396.31-.317.187-.476.488-.476.902 0 .384.09.672.27.863.18.192.428.288.745.288zm-2.3-1.01c0-.436.085-.799.254-1.09.17-.29.397-.525.682-.707a2.946 2.946 0 011.007-.388 6.21 6.21 0 011.23-.117h.396V22.9c0-.633-.114-1.068-.34-1.306-.228-.239-.548-.358-.96-.358-.381 0-.699.08-.952.24a5.7 5.7 0 00-.603.429l-.54-.84c.085-.083.194-.176.326-.28.132-.104.293-.202.484-.295.19-.094.407-.171.65-.234.243-.062.518-.093.825-.093.782 0 1.374.213 1.776.638.402.425.603 1.109.603 2.052v3.405c0 .322.01.635.032.941.02.306.042.51.063.614h-1.221l-.048-.824h-.032c-.042.094-.105.2-.19.319-.085.12-.19.228-.317.327-.127.098-.28.184-.46.256a1.69 1.69 0 01-.635.109c-.285 0-.552-.052-.8-.155a1.94 1.94 0 01-1.079-1.096 2.24 2.24 0 01-.15-.833zm-2.157-7.371c-.264 0-.476-.083-.634-.249-.16-.166-.238-.383-.238-.653 0-.259.079-.472.238-.637.158-.166.37-.25.634-.25.254 0 .46.084.619.25a.885.885 0 01.238.637c0 .27-.08.487-.238.653a.818.818 0 01-.619.249zm-.65 9.267h1.284V20.35h-1.284v7.463zm-1.618-6.655l-3.077 5.551v.031h3.283l-.11 1.073H149.8v-.808l3.172-5.598v-.031h-2.998V20.35h4.568v.808zm-7.106 2.923c0-.995-.148-1.718-.444-2.168-.296-.452-.708-.677-1.237-.677-.529 0-.939.225-1.23.677-.29.45-.435 1.173-.435 2.168 0 .996.148 1.711.444 2.146.296.436.708.653 1.237.653.528 0 .938-.217 1.229-.653.29-.435.436-1.15.436-2.146zm-4.679 0c0-.684.082-1.274.246-1.772.164-.498.386-.905.666-1.22.28-.317.603-.55.968-.7a3.03 3.03 0 011.165-.226c.423 0 .815.075 1.174.226.36.15.672.383.936.7.264.315.473.722.627 1.22.153.498.23 1.088.23 1.772 0 .695-.08 1.291-.238 1.789-.16.497-.378.904-.659 1.22-.28.316-.605.547-.975.692-.37.146-.762.218-1.174.218-.423 0-.814-.072-1.174-.218a2.362 2.362 0 01-.935-.692c-.265-.316-.474-.72-.627-1.212-.153-.493-.23-1.091-.23-1.797zm-2.11-5.348a2.653 2.653 0 00-.214-.18 2.074 2.074 0 00-.38-.225 2.828 2.828 0 00-1.23-.264c-.475 0-.835.124-1.078.373a1.206 1.206 0 00-.365.87c0 .208.03.4.087.576.059.177.148.35.27.521.122.171.272.342.452.513.18.171.397.355.65.552l.889.715c.253.208.494.42.721.638.228.218.423.448.587.692a3.011 3.011 0 01.531 1.75c0 .818-.259 1.48-.777 1.982-.518.503-1.274.754-2.268.754a4.46 4.46 0 01-1.039-.109 4.16 4.16 0 01-.785-.264 3.286 3.286 0 01-.888-.591l.555-1.182c.063.062.159.145.286.249.126.104.28.207.46.311.18.104.383.192.61.264.228.073.484.11.77.11.539 0 .954-.133 1.245-.397.29-.265.436-.578.436-.941 0-.228-.03-.436-.087-.622a2.17 2.17 0 00-.254-.537 3.006 3.006 0 00-.42-.505 8.178 8.178 0 00-.603-.529l-.889-.73a13.108 13.108 0 01-.809-.708 4.272 4.272 0 01-.594-.7 2.88 2.88 0 01-.373-.793 3.478 3.478 0 01-.127-.987c0-.342.066-.663.198-.964.132-.3.32-.56.563-.778a2.66 2.66 0 01.88-.513 3.41 3.41 0 011.167-.186 4.021 4.021 0 011.657.334c.196.088.352.179.468.272.116.093.206.16.27.202l-.571 1.027zm-12.45 8.147a1.678 1.678 0 001.245-.513c.079-.083.14-.155.182-.217v-4.603a1.932 1.932 0 00-.404-.187 1.832 1.832 0 00-.58-.077c-.295 0-.573.049-.832.147-.259.099-.484.262-.674.49-.19.228-.341.524-.452.887-.111.362-.167.808-.167 1.337 0 .518.045.95.135 1.298.09.347.214.627.373.84.158.212.338.365.54.458.2.094.412.14.634.14zm-3.014-2.69c0-.756.1-1.389.301-1.897.201-.508.46-.917.778-1.228a2.72 2.72 0 011.078-.661 3.91 3.91 0 011.206-.194c.243 0 .454.018.634.054.18.036.328.08.444.132V16.82l1.285-.14v11.133h-1.174v-.793h-.032a1.764 1.764 0 01-.523.583 2.116 2.116 0 01-.555.28 2.351 2.351 0 01-.777.117c-.36 0-.7-.07-1.023-.21a2.2 2.2 0 01-.849-.669c-.243-.305-.436-.7-.579-1.181-.143-.482-.214-1.065-.214-1.75zm-2.855 3.623V23.01c0-.633-.108-1.086-.325-1.361-.217-.275-.547-.412-.992-.412-.38 0-.697.093-.951.28a3.465 3.465 0 00-.603.544v5.753h-1.285V20.35h1.174v.84h.032c.032-.063.1-.154.206-.273.106-.119.243-.233.412-.342.17-.109.37-.205.603-.287a2.35 2.35 0 01.793-.125c.339 0 .645.05.92.148.275.098.508.256.698.474.19.218.338.5.444.847.106.348.159.775.159 1.283v4.898h-1.285zm-6.122 0h-1.174v-.84H115c-.032.063-.1.154-.206.273-.106.12-.24.233-.404.342a2.736 2.736 0 01-.595.288 2.3 2.3 0 01-.777.124c-.339 0-.643-.05-.912-.148a1.66 1.66 0 01-.69-.474c-.19-.218-.336-.5-.437-.847-.1-.348-.15-.775-.15-1.283V20.35h1.284v4.804c0 .622.104 1.065.31 1.33.206.264.526.396.96.396.37 0 .681-.09.935-.272.254-.181.455-.36.603-.536V20.35h1.285v7.463zm-10.152-6.437h-1.665v4.136c0 .529.069.889.206 1.08.138.193.37.288.698.288.19 0 .354-.025.492-.077.137-.052.238-.099.301-.14l.175 1.01c-.053.042-.18.107-.38.195-.202.088-.472.132-.81.132-.656 0-1.147-.179-1.475-.537-.328-.357-.492-.95-.492-1.78v-4.307h-.92v-.84l.92-.186.143-2.084h1.142v2.084h1.824l-.159 1.026zm-5.852-2.83c-.265 0-.476-.083-.635-.249-.158-.166-.238-.383-.238-.653 0-.259.08-.472.238-.637.159-.166.37-.25.635-.25.253 0 .46.084.618.25a.885.885 0 01.238.637c0 .27-.08.487-.238.653a.818.818 0 01-.618.249zm-.65 9.267h1.284V20.35h-1.285v7.463zm-4.124-6.624c-.455 0-.82.187-1.095.56-.275.373-.434.912-.476 1.617h2.776c.01-.052.019-.127.024-.225.005-.099.008-.205.008-.319 0-.518-.106-.92-.318-1.205-.211-.285-.518-.428-.92-.428zm2.41 1.68a9.4 9.4 0 01-.031.832c-.022.233-.043.437-.064.614h-3.886c.042.88.235 1.529.58 1.943.343.415.837.622 1.482.622.222 0 .423-.025.603-.077a2.297 2.297 0 001-.576l.475.887a14.19 14.19 0 01-.238.225 2.136 2.136 0 01-.428.296 3.11 3.11 0 01-.666.256 3.56 3.56 0 01-.936.109 3.43 3.43 0 01-1.293-.233 2.44 2.44 0 01-.983-.723c-.27-.327-.479-.742-.627-1.244-.148-.503-.222-1.107-.222-1.812 0-.663.077-1.236.23-1.718.154-.482.362-.878.627-1.19.264-.31.57-.541.92-.691.349-.15.724-.226 1.126-.226.73 0 1.3.226 1.713.676.412.451.618 1.128.618 2.03zm-7.85 1.026c0-.933-.144-1.61-.43-2.03-.285-.42-.676-.629-1.173-.629-.402 0-.71.083-.928.249-.217.166-.399.337-.547.513v4.587c.095.062.222.127.38.194.16.068.35.101.572.101.306 0 .59-.049.848-.147.26-.099.484-.265.674-.498.19-.233.339-.542.444-.925.106-.384.16-.855.16-1.415zm1.331-.155c0 .798-.095 1.466-.285 2.005-.19.54-.444.972-.761 1.299a2.72 2.72 0 01-1.11.7 4.26 4.26 0 01-1.349.21 3.628 3.628 0 01-1.46-.288 2.717 2.717 0 01-.451-.241 4.19 4.19 0 01-.278-.203V16.82l1.285-.109v4.354h.032a2.003 2.003 0 01.603-.575 2.17 2.17 0 01.531-.234c.206-.062.436-.093.69-.093.782 0 1.404.288 1.864.863.46.575.69 1.48.69 2.714zm-6.947-2.286a.933.933 0 00-.206-.078 1.573 1.573 0 00-.428-.047c-.402 0-.717.106-.944.319a1.863 1.863 0 00-.484.692v5.473h-1.284V20.35H82.2v1.01h.032c.053-.145.122-.287.206-.427.085-.14.19-.265.317-.373.127-.11.278-.195.452-.257.175-.062.384-.093.627-.093.18 0 .325.015.436.046.111.032.198.057.262.078l-.159 1.12zm-7.232 1.897l-.857-2.94c-.116-.393-.217-.769-.301-1.126a4.979 4.979 0 01-.143-.895h-.032a4.39 4.39 0 01-.15.879c-.09.347-.193.718-.31 1.112l-.904 2.97h2.697zm2.807 4.462h-1.523l-.983-3.436h-3.315l-1 3.436h-1.395l3.569-10.729h1.078l3.569 10.73zm-11.277-6.36a.933.933 0 00-.206-.077 1.574 1.574 0 00-.429-.047c-.402 0-.716.106-.943.319a1.862 1.862 0 00-.484.692v5.473h-1.285V20.35h1.174v1.01h.032c.053-.145.121-.287.206-.427.084-.14.19-.265.317-.373.127-.11.277-.195.452-.257s.383-.093.627-.093c.18 0 .325.015.436.046.11.032.198.057.261.078l-.158 1.12zm-6.027-3.25a.77.77 0 01-.222.576.742.742 0 01-.54.218.742.742 0 01-.539-.218.77.77 0 01-.222-.575c0-.239.074-.43.222-.575a.742.742 0 01.54-.218c.21 0 .39.072.539.218a.77.77 0 01.222.575zm-2.443 0a.77.77 0 01-.222.576.742.742 0 01-.54.218.741.741 0 01-.539-.218.77.77 0 01-.222-.575c0-.239.074-.43.222-.575a.741.741 0 01.54-.218c.211 0 .39.072.539.218a.769.769 0 01.222.575zm3.156 9.61h-1.173v-.84h-.032c-.032.063-.1.154-.206.273-.106.12-.24.233-.405.342a2.74 2.74 0 01-.595.288 2.3 2.3 0 01-.777.124c-.338 0-.642-.05-.912-.148a1.66 1.66 0 01-.69-.474c-.19-.218-.335-.5-.436-.847-.1-.348-.15-.775-.15-1.283V20.35h1.284v4.804c0 .622.103 1.065.31 1.33.206.264.526.396.959.396.37 0 .682-.09.936-.272.254-.181.454-.36.603-.536V20.35h1.284v7.463zm-6.598-6.437h-1.554v6.437H53.92v-6.437H53v-.84l.92-.17v-1.494c0-.404.058-.751.174-1.041.117-.29.27-.529.46-.716.19-.186.413-.321.667-.404.253-.083.523-.124.809-.124.274 0 .507.036.697.108.19.073.318.13.381.172l-.27 1.041a1.598 1.598 0 00-.27-.132 1.152 1.152 0 00-.427-.07c-.307 0-.54.094-.698.28-.159.187-.238.529-.238 1.026v1.338h1.713l-.159 1.026zm99.91-9.243V7.33c0-.612-.09-1.053-.27-1.322-.18-.27-.47-.404-.873-.404a1.867 1.867 0 00-1.332.528 4.585 4.585 0 00-.238.25v5.752h-1.285V4.67h1.174v.84h.032c.053-.084.132-.185.238-.304a2.15 2.15 0 01.396-.342 2.192 2.192 0 011.269-.381c.867 0 1.48.332 1.84.995a2.44 2.44 0 01.745-.66 2.468 2.468 0 011.269-.334c1.544-.001 2.316.88 2.316 2.642v5.007h-1.285V7.33c0-.612-.11-1.053-.333-1.322-.222-.27-.55-.404-.983-.404-.36 0-.658.085-.896.256a3.416 3.416 0 00-.563.49c.02.114.037.236.047.365.01.13.016.267.016.412v5.007h-1.285zm-5.964 0h-1.174v-.84h-.032a1.52 1.52 0 01-.206.273c-.106.119-.24.233-.404.342a2.734 2.734 0 01-.595.287 2.3 2.3 0 01-.778.125c-.338 0-.642-.05-.911-.148a1.66 1.66 0 01-.69-.474c-.19-.218-.336-.5-.437-.848-.1-.347-.15-.774-.15-1.282V4.67h1.284v4.804c0 .622.104 1.065.31 1.33.206.264.526.396.96.396.37 0 .681-.09.935-.272.254-.181.455-.36.603-.536V4.67h1.285v7.463zm-7.931-9.267c-.264 0-.476-.083-.635-.249-.158-.166-.237-.383-.237-.653 0-.26.079-.472.237-.637.16-.166.37-.25.635-.25.254 0 .46.084.619.25a.884.884 0 01.237.637c0 .27-.079.487-.237.653a.818.818 0 01-.62.249zm-.65 9.267h1.284V4.67h-1.284v7.463zm-1.27-6.36a.926.926 0 00-.205-.077 1.573 1.573 0 00-.429-.047c-.402 0-.716.106-.943.319a1.862 1.862 0 00-.484.692v5.473h-1.285V4.67h1.174v1.01h.032c.052-.145.121-.287.206-.427.084-.14.19-.265.317-.374.127-.108.277-.194.452-.256s.383-.093.626-.093c.18 0 .326.015.437.046.11.031.198.057.261.078l-.158 1.12zm-7.47-.264c-.454 0-.82.187-1.094.56-.275.373-.434.912-.476 1.617h2.776c.01-.052.018-.127.023-.225.006-.099.008-.205.008-.32 0-.517-.105-.92-.317-1.204-.211-.285-.518-.428-.92-.428zm2.411 1.68c0 .32-.01.598-.032.831-.02.234-.042.438-.063.615h-3.886c.042.88.235 1.529.579 1.943.344.415.838.622 1.483.622.222 0 .423-.026.603-.077a2.296 2.296 0 00.999-.576l.476.887-.238.225a2.14 2.14 0 01-.428.296c-.18.098-.402.184-.667.256a3.565 3.565 0 01-.935.109c-.476 0-.907-.078-1.293-.233a2.442 2.442 0 01-.984-.724c-.27-.326-.478-.74-.626-1.243-.148-.503-.222-1.107-.222-1.812 0-.663.077-1.236.23-1.718.153-.482.362-.879.626-1.19.265-.31.571-.541.92-.692.35-.15.725-.225 1.127-.225.73 0 1.3.225 1.713.676.412.451.618 1.128.618 2.03zm-6.233-1.493h-1.666v4.136c0 .529.069.889.206 1.08.138.192.37.288.698.288.19 0 .355-.026.492-.077.137-.052.238-.099.301-.14l.175 1.01c-.053.042-.18.107-.38.195-.202.088-.471.132-.81.132-.655 0-1.147-.179-1.475-.537-.328-.357-.492-.95-.492-1.78V5.696h-.92v-.84l.92-.186.143-2.084h1.142V4.67h1.824l-.158 1.026zm-5.52.482a3.22 3.22 0 00-.46-.381c-.222-.16-.513-.241-.872-.241-.339 0-.598.078-.778.233a.716.716 0 00-.27.56c0 .28.083.51.247.692.164.181.415.376.753.583l.476.28c.518.3.925.624 1.221.972.296.347.444.795.444 1.345 0 .59-.209 1.088-.626 1.492-.418.405-1.018.607-1.8.607-.307 0-.577-.031-.81-.093a3.57 3.57 0 01-.61-.218 2.018 2.018 0 01-.436-.272 2.87 2.87 0 01-.286-.272l.619-.995c.063.062.14.134.23.217a2.078 2.078 0 00.753.436c.159.051.344.077.555.077.381 0 .672-.083.873-.248a.76.76 0 00.301-.607c0-.176-.024-.33-.071-.459a1.045 1.045 0 00-.214-.35 1.983 1.983 0 00-.35-.295 19.09 19.09 0 00-.475-.31l-.476-.296c-.476-.301-.849-.617-1.118-.949-.27-.332-.405-.757-.405-1.275a1.767 1.767 0 01.635-1.376c.2-.171.436-.306.706-.404.27-.099.557-.148.864-.148.296 0 .55.028.761.085a2.309 2.309 0 01.928.482c.1.089.183.164.246.226l-.555.902zm-5.885-3.312c-.264 0-.475-.083-.634-.249-.159-.166-.238-.383-.238-.653 0-.26.08-.472.238-.637.159-.166.37-.25.634-.25.254 0 .46.084.62.25a.884.884 0 01.237.637c0 .27-.08.487-.238.653a.818.818 0 01-.619.249zm-.65 9.267h1.285V4.67h-1.285v7.463zm-3.204 0V7.33c0-.633-.108-1.086-.325-1.361-.217-.275-.547-.412-.991-.412-.38 0-.698.093-.952.28a3.472 3.472 0 00-.603.544v5.753h-1.284V4.67h1.173v.84h.032c.032-.063.1-.154.206-.273.106-.12.244-.233.413-.342.169-.109.37-.205.602-.288a2.35 2.35 0 01.793-.124c.339 0 .645.05.92.148.275.098.508.256.698.474.19.218.339.5.444.847.106.348.16.775.16 1.283v4.898h-1.286zm-6.757-9.267c-.264 0-.475-.083-.634-.249-.159-.166-.238-.383-.238-.653 0-.26.08-.472.238-.637.159-.166.37-.25.634-.25.254 0 .46.084.619.25a.884.884 0 01.238.637c0 .27-.08.487-.238.653a.818.818 0 01-.619.249zm-.65 9.267h1.285V4.67h-1.285v7.463zm-7.2 0V7.33c0-.612-.09-1.053-.27-1.322-.18-.27-.471-.404-.873-.404a1.867 1.867 0 00-1.332.528 4.59 4.59 0 00-.238.25v5.752h-1.285V4.67h1.174v.84h.032c.053-.084.132-.185.238-.304.105-.12.237-.233.396-.342a2.192 2.192 0 011.269-.381c.867 0 1.48.332 1.84.995a2.44 2.44 0 01.745-.66 2.468 2.468 0 011.269-.334c1.544-.001 2.316.88 2.316 2.642v5.007h-1.285V7.33c0-.612-.11-1.053-.333-1.322-.222-.27-.55-.404-.983-.404-.36 0-.658.085-.896.256a3.415 3.415 0 00-.563.49c.02.114.037.236.047.365.01.13.016.267.016.412v5.007h-1.285zM93.43 6.178a3.224 3.224 0 00-.46-.381c-.222-.16-.513-.241-.872-.241-.339 0-.598.078-.778.233a.716.716 0 00-.27.56c0 .28.083.51.247.692.164.181.415.376.753.583l.476.28c.518.3.925.624 1.221.972.296.347.444.795.444 1.345 0 .59-.209 1.088-.626 1.492-.418.405-1.018.607-1.8.607-.307 0-.577-.031-.81-.093a3.569 3.569 0 01-.61-.218 2.013 2.013 0 01-.436-.272 2.874 2.874 0 01-.286-.272l.619-.995c.063.062.14.134.23.217a2.082 2.082 0 00.753.436c.159.051.344.077.556.077.38 0 .67-.083.872-.248a.76.76 0 00.301-.607c0-.176-.024-.33-.071-.459a1.046 1.046 0 00-.214-.35 1.98 1.98 0 00-.35-.295 18.751 18.751 0 00-.475-.31l-.476-.296c-.476-.301-.849-.617-1.118-.949-.27-.332-.405-.757-.405-1.275a1.768 1.768 0 01.635-1.376c.2-.171.436-.306.706-.404.27-.099.557-.148.864-.148.296 0 .55.028.761.085a2.304 2.304 0 01.928.482c.1.089.183.164.246.226l-.555.902zm-7.407-.669c-.455 0-.82.187-1.095.56-.275.373-.433.912-.475 1.617h2.775c.01-.052.019-.127.024-.225.005-.099.008-.205.008-.32 0-.517-.106-.92-.317-1.204-.212-.285-.518-.428-.92-.428zm2.41 1.68c0 .32-.01.598-.03.831-.022.234-.043.438-.064.615h-3.886c.042.88.235 1.529.579 1.943.343.415.838.622 1.483.622.222 0 .423-.026.602-.077a2.298 2.298 0 001-.576l.475.887a13.83 13.83 0 01-.238.225 2.138 2.138 0 01-.428.296c-.18.098-.402.184-.666.256a3.565 3.565 0 01-.936.109c-.476 0-.906-.078-1.292-.233a2.44 2.44 0 01-.984-.724c-.27-.326-.478-.74-.626-1.243-.148-.503-.222-1.107-.222-1.812 0-.663.076-1.236.23-1.718.153-.482.362-.879.626-1.19.264-.31.571-.541.92-.692.349-.15.724-.225 1.126-.225.73 0 1.3.225 1.713.676.413.451.619 1.128.619 2.03zM78.87 11.2a1.678 1.678 0 001.245-.513c.079-.083.14-.155.182-.217V5.867a1.934 1.934 0 00-.404-.187 1.836 1.836 0 00-.58-.077c-.295 0-.573.049-.832.147a1.62 1.62 0 00-.674.49c-.19.228-.341.524-.452.886-.111.363-.167.809-.167 1.338 0 .518.045.95.135 1.298.09.347.214.627.373.84.158.212.338.365.54.458.2.094.411.14.634.14zm-3.014-2.69c0-.756.1-1.389.301-1.897.201-.508.46-.917.777-1.228a2.72 2.72 0 011.08-.661 3.91 3.91 0 011.204-.194c.244 0 .455.018.635.054.18.036.328.08.444.132V1.14L81.582 1v11.133h-1.174v-.793h-.032a1.786 1.786 0 01-.523.583 2.117 2.117 0 01-.555.28 2.352 2.352 0 01-.777.117c-.36 0-.7-.07-1.023-.21a2.2 2.2 0 01-.85-.669c-.242-.305-.435-.7-.578-1.181-.143-.482-.214-1.066-.214-1.75zM73 12.133V7.33c0-.633-.108-1.086-.325-1.361-.217-.275-.547-.412-.992-.412-.38 0-.697.093-.951.28a3.476 3.476 0 00-.603.544v5.753h-1.285V4.67h1.174v.84h.032c.031-.063.1-.154.206-.273.106-.12.243-.233.412-.342.17-.109.37-.205.603-.288a2.35 2.35 0 01.793-.124c.339 0 .645.05.92.148.275.098.508.256.698.474.19.218.338.5.444.847.106.348.159.775.159 1.283v4.898H73zm-6.123 0h-1.173v-.84h-.032c-.032.063-.1.154-.206.273-.106.119-.24.233-.404.342a2.736 2.736 0 01-.595.287 2.3 2.3 0 01-.778.125c-.338 0-.642-.05-.912-.148a1.66 1.66 0 01-.69-.474c-.19-.218-.335-.5-.436-.848-.1-.347-.15-.774-.15-1.282V4.67h1.284v4.804c0 .622.103 1.065.31 1.33.206.264.526.396.96.396.37 0 .681-.09.935-.272.254-.181.455-.36.603-.536V4.67h1.284v7.463zm-8.501-3c0-.581-.193-1.04-.579-1.377-.386-.337-.938-.505-1.657-.505h-.936v3.763h.856c.814 0 1.404-.158 1.769-.475.365-.316.547-.785.547-1.407zm-.206-4.945c0-.498-.18-.908-.54-1.229-.359-.321-.925-.482-1.697-.482h-.73v3.7h.714c.74 0 1.301-.175 1.682-.528.38-.352.57-.84.57-1.461zm1.396-.047c0 .373-.048.7-.143.98-.095.28-.225.52-.389.723a2.04 2.04 0 01-.57.49 2.811 2.811 0 01-.675.28v.03a2.51 2.51 0 011.451.84c.185.218.334.474.445.77.11.295.166.62.166.972 0 .425-.074.813-.222 1.166a2.38 2.38 0 01-.69.917c-.312.26-.706.461-1.182.607-.476.145-1.041.217-1.697.217h-2.236V1.404h2.11c.644 0 1.197.065 1.657.195.46.13.838.313 1.134.552.296.238.51.526.642.862.132.338.199.713.199 1.128z" fill="#131413"/><path fill="#F2CC00" d="M41.637 54.777h1.843v26.58h-4.3v-26.58z"/><path fill="#DB2A1B" d="M41.637 28.196h1.843v26.58h-4.3v-26.58z"/><path fill="#131413" d="M43.48 2v26.581H39.18V2zM18.716 11.043c.036-.298.057-.606.057-.92 0-.172.001-.371-.02-.597 2.646-.038 4.966-1.949 4.966-4.147 0-1.119-.727-1.963-1.138-2.467.092-.02.185-.042.278-.064.388.338 1.488 1.538 1.488 3.055 0 2.637-2.629 5.085-5.63 5.14zm-2.665-9.185a1.81 1.81 0 00-.33-.788c.008-.27.118-.526.55-.315-.234.24-.054.664-.054.664s.478-.222.38-.538c.708.17.199 1.124-.546.977zm-.615 1.354a2.78 2.78 0 00-.553-1.103c-.233-.277-.62-.605-1.139-.605-.238 0-.636.111-.89.219-.094-.173-.279-.59-.279-.778 0-.193.326-.389.948-.389 1.37 0 2.188.622 2.188 1.663 0 .365-.144.698-.275.993zm3.518 17.706c.159 0 .237.026.328.06.395 1.076 1.914 3.105 1.978 3.192l.014.019.023-.005c.372-.06 1.324-.205 2.121-.205h.018c.086 0 .185 0 .247.061.051.052.077.144.077.272 0 .2-.084.538-.184.684-.28-.306-.732-.442-1.456-.442-.218 0-.476.065-.615.102l-.057.012-.066.017.42.42c.644.646 1.202 1.204 1.202 1.576 0 .223-.218.515-.418.645-.043-.682-.728-1.592-1.395-2.101l-.058-.043-.01.24c-.01.162-.024.406-.024.666 0 1.296-.131 1.492-.58 1.492a.794.794 0 01-.238-.044c.252-.312.352-.725.352-1.45l-.004-.333-.004-.27c0-.296.03-.516.055-.692l.013-.1-.07-.01a7.095 7.095 0 00-.897-.083c-.638 0-1.07.059-1.385.355-.206-.168-.419-.456-.419-.64 0-.27.168-.29.388-.29.111 0 .215.015.359.033.274.04.687.101 1.538.101h.052l-.016-.051c-.216-.62-.808-1.519-1.757-2.676.086-.31.17-.512.468-.512zm-8.196 3.188l-.017.051h.053c.85 0 1.264-.06 1.539-.1.143-.02.247-.035.358-.035.22 0 .388.021.388.291 0 .184-.213.472-.419.64-.314-.296-.747-.355-1.384-.355-.299 0-.688.054-.898.083l-.033.004-.037.005.013.1c.024.177.055.397.055.693l-.004.27-.003.334c0 .724.099 1.137.352 1.45a.798.798 0 01-.24.043c-.448 0-.578-.196-.578-1.492 0-.26-.014-.504-.024-.667l-.012-.24-.057.044c-.666.51-1.353 1.42-1.394 2.1-.201-.13-.418-.42-.418-.644 0-.372.557-.93 1.202-1.576l.371-.372.047-.048-.122-.03a2.624 2.624 0 00-.615-.101c-.724 0-1.176.136-1.456.442-.1-.146-.184-.485-.184-.684 0-.128.025-.22.076-.272.064-.06.162-.06.248-.06h.018c.796 0 1.75.144 2.121.204l.022.005.015-.019c.064-.087 1.583-2.116 1.978-3.192a.81.81 0 01.328-.06c.3 0 .382.203.468.512-.95 1.157-1.54 2.057-1.757 2.676zM6.654 5.903c0-1.517 1.1-2.717 1.488-3.055.093.022.186.045.278.064-.411.504-1.138 1.348-1.138 2.467 0 2.22 2.366 4.148 5.044 4.148-.017.19-.026.39-.026.596 0 .327.018.633.05.92-3.029-.018-5.696-2.484-5.696-5.14zm20.317 4.677C28.33 12.736 29.394 12.7 31 12.7c-1.33-1.023-2.208-2.33-2.627-2.999l-2.482-3.983a5.901 5.901 0 00-1.827-3.236c.32-.121.585-.249.745-.37-1.62 0-3.227-.826-4.111-.826-.568 0-.934.341-.934.791.037.502.552 1.013 1.503 1.013.216 0 .491-.03.794-.08.515.721.93 1.372.93 2.3 0 1.745-2.078 3.104-4.177 3.104-.119 0-.231-.005-.35-.014-.19-.432-.823-1.158-.823-1.983 0-1.386.901-2.518.901-3.89 0-.853-.414-1.381-.574-1.6.258-.24.54-.536.605-.737-.15.064-.326.073-.586.073C16.98.263 16.16 0 15.36 0c-.455 0-.578.142-.578.276 0 .049.007.1.02.124-.17-.067-.33-.11-.52-.146a4.061 4.061 0 00-.76-.067c-.971 0-1.317.408-1.317.758 0 .297.233.837.497 1.249.379-.19.833-.32 1.041-.32.515 0 .974.492 1.217 1.076-.346.041-.413.057-.764.057-.945 0-1.589-.34-1.722-.34-.013 0-.038.007-.038.027 0 .134.268.485.797.679.696.255 1.74.362 1.914.39 0 .031-.177.362-.374.425a.22.22 0 01-.123.005c-.728-.144-.93-.205-1.854-.557-.028-.01-.044.007-.044.037 0 .365.945 1.174 1.791 1.483-.707.905-1.59 1.832-2.007 3.244a4.46 4.46 0 01-.35.014c-2.099 0-4.178-1.36-4.178-3.103 0-.93.416-1.58.931-2.3.303.05.578.079.794.079.951 0 1.466-.511 1.504-1.013 0-.45-.366-.79-.935-.79-.884 0-2.49.825-4.111.825.16.121.425.249.744.37A5.901 5.901 0 005.11 5.718L2.628 9.701C2.21 10.37 1.328 11.677 0 12.7c1.606 0 2.67.037 4.03-2.119l1.272-2.042c.095.265.211.523.347.776l-2.53 4.061c-.422.674-1.295 1.971-2.629 2.998 1.606 0 2.67.038 4.03-2.117l2.178-3.498c.163.175.335.345.516.507l-3.075 4.936c-.423.675-1.29 1.969-2.628 2.996 1.607 0 2.671.039 4.03-2.117l2.997-4.813c.197.125.4.248.608.362l-3.658 5.87c-.422.677-1.29 1.966-2.627 2.996 1.606 0 2.67.038 4.03-2.116l3.766-6.048c.223.086.45.168.68.242L7.08 20.406c-.417.665-1.305 1.978-2.627 2.995 1.606 0 2.67.036 4.03-2.117l4.536-7.282c.046.008.092.015.137.024.123.394.21.761.21 1.128 0 2.288-1.497 4.31-3.295 5.869.115.05.315.068.5.068.371 0 .611-.02.779-.05-.417.95-1.31 2.175-1.762 2.81a13.065 13.065 0 00-2.005-.19c-.586 0-.653.344-.653.651 0 .534.25.96.54 1.196.108-.273.327-.638 1.41-.638.021 0 .059.002.11.006-.317.354-1.309 1.157-1.309 1.805 0 .429.47 1.071 1.087 1.071-.037-.138-.032-.265-.032-.36 0-.525.463-1.139.854-1.567-.011.128-.005.115-.005.263 0 1.24.112 1.81.896 1.81.385 0 .65-.212.742-.276-.51-.47-.536-.84-.536-1.535l.004-.602c.002-.159 0-.37-.026-.521.281-.04.395-.04.61-.04 0 0 1.115-.088 1.384.493.302-.278.742-.67.742-1.104 0-.285-.136-.61-.71-.61-.217 0-.9.135-1.473.135.153-.344.838-1.347 1.43-2.075.09.282.23.587.541.837.043-.468.317-1.95 1.047-2.816.085.585.2 1.186.2 2.452 0 3.08-.738 5.355-2.306 5.789.204.356.635.676 1.083.676.573 0 .886-.65 1.204-1.264.166.453.624 1.563 1.083 1.563.459 0 .918-1.11 1.084-1.563.318.614.63 1.264 1.204 1.264.448 0 .88-.32 1.084-.676-1.568-.434-2.307-2.71-2.307-5.789 0-1.266.114-1.867.199-2.452.73.866 1.005 2.348 1.047 2.816.311-.25.452-.555.541-.837.593.728 1.277 1.731 1.432 2.075-.573 0-1.257-.134-1.474-.134-.574 0-.71.324-.71.61 0 .432.44.825.743 1.103.267-.58 1.383-.492 1.383-.492.216 0 .329 0 .61.039a3.306 3.306 0 00-.026.52l.004.603c0 .695-.026 1.064-.536 1.535.092.064.357.276.742.276.785 0 .897-.57.897-1.81 0-.148.004-.135-.006-.263.39.428.854 1.042.854 1.567 0 .095.005.222-.032.36.618 0 1.087-.642 1.087-1.071 0-.648-.991-1.451-1.309-1.805a1.77 1.77 0 01.109-.006c1.084 0 1.303.365 1.412.638.29-.236.538-.662.538-1.196 0-.307-.065-.651-.652-.651-.56 0-1.416.083-2.005.19-.452-.635-1.345-1.86-1.762-2.81.167.03.408.05.778.05.186 0 .386-.017.501-.068-1.797-1.56-3.295-3.581-3.295-5.87 0-.366.087-.733.21-1.127.045-.009.091-.016.137-.024l4.537 7.282c1.358 2.153 2.424 2.117 4.028 2.117-1.322-1.017-2.21-2.33-2.625-2.995l-4.258-6.833c.23-.074.457-.156.68-.242l3.767 6.048c1.358 2.154 2.423 2.116 4.03 2.116-1.338-1.03-2.205-2.32-2.627-2.995l-3.66-5.871c.209-.114.412-.237.608-.362l2.998 4.813c1.36 2.156 2.423 2.117 4.029 2.117-1.336-1.027-2.204-2.32-2.627-2.996l-3.074-4.936c.18-.162.353-.332.514-.507l2.18 3.498c1.358 2.155 2.423 2.117 4.03 2.117-1.336-1.027-2.207-2.324-2.629-2.998l-2.53-4.061c.135-.253.251-.511.346-.776l1.272 2.042z"/></g></svg>