<?xml version="1.0" encoding="UTF-8"?>
<svg id="Ebene_2" data-name="Ebene 2" xmlns="http://www.w3.org/2000/svg" width="66.47" height="20.73" viewBox="0 0 66.47 20.73">
  <g id="Ebene_1-2" data-name="Ebene 1">
    <g>
      <path d="m4.82,2.42c0,.29-.04.54-.11.76s-.17.4-.29.56-.27.28-.43.38c-.16.1-.33.17-.51.22v.02c.22.04.42.12.61.23.19.11.35.25.49.42s.25.37.34.59c.08.23.13.48.13.75,0,.33-.06.63-.17.9s-.29.51-.52.71-.53.36-.89.47c-.36.11-.79.17-1.28.17H.5V.32h1.6c.49,0,.91.05,1.25.15.35.1.63.24.86.43.22.18.39.41.49.67s.15.55.15.87l-.03-.02Zm-1.06.04c0-.38-.14-.7-.41-.95s-.7-.37-1.28-.37h-.55v2.86h.54c.56,0,.98-.14,1.27-.41.29-.27.43-.65.43-1.13Zm.16,3.82c0-.45-.15-.8-.44-1.06s-.71-.39-1.25-.39h-.71v2.9h.65c.62,0,1.06-.12,1.34-.37.28-.24.41-.61.41-1.09h0Z"/>
      <path d="m10.35,8.59h-.89v-.65h-.02s-.08.12-.16.21c-.08.09-.18.18-.31.26s-.27.16-.45.22-.37.1-.59.1c-.26,0-.49-.04-.69-.11-.2-.08-.38-.2-.52-.37s-.25-.39-.33-.65c-.08-.27-.11-.6-.11-.99v-3.78h.97v3.71c0,.48.08.82.23,1.03.16.2.4.31.73.31.28,0,.52-.07.71-.21s.34-.28.46-.41V2.84h.97v5.76h0Z"/>
      <path d="m14.98,8.59v-3.71c0-.49-.08-.84-.25-1.05s-.41-.32-.75-.32c-.29,0-.53.07-.72.22-.19.14-.34.28-.46.42v4.44h-.97V2.83h.89v.65h.02s.08-.12.16-.21c.08-.09.18-.18.31-.26s.28-.16.46-.22.38-.1.6-.1c.26,0,.49.04.7.11.21.08.38.2.53.37s.26.39.34.65c.08.27.12.6.12.99v3.78h-.98Z"/>
      <path d="m17.14,5.8c0-.58.08-1.07.23-1.46.15-.39.35-.71.59-.95s.51-.41.82-.51c.3-.1.61-.15.91-.15.18,0,.34.01.48.04.14.03.25.06.34.1V.11l.97-.11v8.59h-.89v-.61h-.02s-.07.11-.13.2c-.06.08-.15.17-.26.25s-.25.16-.42.22-.36.09-.59.09c-.27,0-.53-.05-.77-.16s-.46-.28-.64-.52-.33-.54-.44-.91c-.11-.37-.16-.82-.16-1.35h-.02Zm2.28,2.08c.15,0,.29-.02.41-.06s.22-.09.31-.15.16-.12.22-.19c.06-.06.11-.12.14-.17v-3.55c-.09-.06-.19-.1-.31-.14-.12-.04-.26-.06-.44-.06-.22,0-.43.04-.63.11s-.37.2-.51.38c-.14.18-.26.4-.34.68-.08.28-.13.62-.13,1.03s.03.73.1,1,.16.48.28.65.26.28.41.35.31.11.48.11h0Z"/>
      <path d="m26.66,4.78c0,.25,0,.46-.02.64s-.03.34-.05.47h-2.94c.03.68.18,1.18.44,1.5s.63.48,1.12.48c.17,0,.32-.02.46-.06.14-.04.25-.09.35-.14s.18-.11.25-.17.12-.1.15-.13l.36.68s-.1.1-.18.17-.19.15-.32.23c-.14.08-.3.14-.5.2-.2.06-.44.08-.71.08-.36,0-.69-.06-.98-.18s-.54-.31-.74-.56-.36-.57-.47-.96-.17-.85-.17-1.4c0-.51.06-.95.17-1.33.12-.37.27-.68.47-.92.2-.24.43-.42.7-.53.26-.12.55-.17.85-.17.55,0,.98.17,1.3.52.31.35.47.87.47,1.57h-.01Zm-1.82-1.29c-.34,0-.62.14-.83.43s-.33.7-.36,1.25h2.1s.01-.1.02-.17v-.25c0-.4-.08-.71-.24-.93-.16-.22-.39-.33-.7-.33h.01Z"/>
      <path d="m30.44,4c-.06-.07-.18-.17-.35-.29s-.39-.19-.66-.19-.45.06-.59.18-.2.26-.2.43c0,.22.06.39.19.53.12.14.31.29.57.45l.36.22c.39.23.7.48.92.75s.34.61.34,1.04c0,.46-.16.84-.47,1.15-.32.31-.77.47-1.36.47-.23,0-.44-.02-.61-.07-.18-.05-.33-.1-.46-.17-.13-.06-.24-.13-.33-.21-.09-.08-.16-.15-.22-.21l.47-.77s.11.1.17.17c.07.06.15.13.25.19.1.06.2.11.32.15.12.04.26.06.42.06.29,0,.51-.06.66-.19.15-.13.23-.28.23-.47,0-.14-.02-.25-.05-.35-.04-.1-.09-.19-.16-.27-.07-.08-.16-.16-.26-.23s-.22-.15-.36-.24l-.36-.23c-.36-.23-.64-.48-.85-.73s-.31-.58-.31-.98c0-.22.04-.41.13-.59.08-.18.2-.34.35-.47s.33-.24.53-.31.42-.11.65-.11.42.02.58.07.3.1.41.17.21.14.29.2.14.13.19.17l-.42.7v-.02Z"/>
      <path d="m36.45,5.45c0,.62-.07,1.13-.22,1.55-.14.42-.34.75-.58,1s-.52.43-.84.54-.66.16-1.02.16c-.23,0-.44-.02-.62-.07-.18-.04-.34-.1-.48-.16-.14-.06-.25-.12-.34-.19-.09-.06-.16-.12-.21-.16V.09l.97-.08v3.36h.02c.04-.06.1-.14.17-.22.08-.08.17-.16.28-.23s.25-.13.4-.18.33-.07.52-.07c.59,0,1.06.22,1.41.67.35.44.52,1.14.52,2.09l.02.02Zm-1.01.12c0-.72-.11-1.24-.32-1.57s-.51-.49-.89-.49c-.3,0-.54.06-.7.19s-.3.26-.41.4v3.54c.07.05.17.1.29.15s.26.08.43.08c.23,0,.45-.04.64-.11.2-.08.37-.2.51-.38.14-.18.26-.42.34-.71s.12-.66.12-1.09h-.01Z"/>
      <path d="m41.38,4.78c0,.25,0,.46-.02.64s-.03.34-.05.47h-2.94c.03.68.18,1.18.44,1.5s.63.48,1.12.48c.17,0,.32-.02.46-.06.14-.04.25-.09.35-.14s.18-.11.25-.17.12-.1.15-.13l.36.68s-.1.1-.18.17-.19.15-.32.23c-.14.08-.3.14-.5.2-.2.06-.44.08-.71.08-.36,0-.69-.06-.98-.18s-.54-.31-.74-.56-.36-.57-.47-.96-.17-.85-.17-1.4c0-.51.06-.95.17-1.33.12-.37.27-.68.47-.92.2-.24.43-.42.7-.53.26-.12.55-.17.85-.17.55,0,.98.17,1.3.52.31.35.47.87.47,1.57h-.01Zm-1.82-1.29c-.34,0-.62.14-.83.43s-.33.7-.36,1.25h2.1s.01-.1.02-.17v-.25c0-.4-.08-.71-.24-.93-.16-.22-.39-.33-.7-.33h.01Z"/>
      <path d="m45.82,8.59v-3.71c0-.49-.08-.84-.25-1.05s-.41-.32-.75-.32c-.29,0-.53.07-.72.22-.19.14-.34.28-.46.42v4.44h-.97V.11L43.64,0v3.42h.02s.08-.11.15-.19.16-.16.28-.24c.12-.08.27-.15.44-.21.17-.06.37-.09.61-.09.5,0,.9.16,1.2.49s.44.87.44,1.63v3.78h-.97.01Z"/>
      <path d="m47.98,5.71c0-.53.06-.98.19-1.37s.29-.7.5-.94.46-.42.73-.54c.28-.12.57-.17.88-.17s.62.06.89.17c.27.12.51.3.71.54.2.24.36.56.47.94.12.38.17.84.17,1.37s-.06,1-.18,1.38-.29.7-.5.94-.46.42-.74.53-.58.17-.89.17-.62-.06-.89-.17-.51-.29-.71-.53-.36-.56-.47-.94c-.12-.38-.17-.84-.17-1.39h0Zm1.94-4.53c0,.18-.06.33-.17.44s-.25.17-.41.17-.3-.06-.41-.17-.17-.26-.17-.44.06-.33.17-.44.25-.17.41-.17.3.06.41.17.17.26.17.44Zm1.6,4.54c0-.77-.11-1.33-.34-1.67-.22-.35-.54-.52-.94-.52s-.71.17-.93.52-.33.91-.33,1.67.11,1.32.34,1.66c.22.34.54.5.94.5s.71-.17.93-.5c.22-.34.33-.89.33-1.66Zm.25-4.54c0,.18-.06.33-.17.44s-.25.17-.41.17-.3-.06-.41-.17-.17-.26-.17-.44.06-.33.17-.44.25-.17.41-.17.3.06.41.17.17.26.17.44Z"/>
      <path d="m56.29,3.68s-.08-.04-.16-.06c-.08-.02-.19-.04-.32-.04-.3,0-.54.08-.71.25s-.29.34-.37.53v4.22h-.97V2.82h.89v.78h.02c.04-.11.09-.22.16-.33.06-.11.14-.2.24-.29.1-.08.21-.15.34-.2.13-.05.29-.07.47-.07.14,0,.25.01.33.04s.15.04.2.06l-.12.86h0Z"/>
      <path d="m56.84,5.8c0-.58.08-1.07.23-1.46.15-.39.35-.71.59-.95s.51-.41.82-.51c.3-.1.61-.15.91-.15.18,0,.34.01.48.04.14.03.25.06.34.1V.11l.97-.11v8.59h-.89v-.61h-.02s-.07.11-.13.2c-.06.08-.15.17-.26.25s-.25.16-.42.22-.36.09-.59.09c-.27,0-.53-.05-.77-.16s-.46-.28-.64-.52-.33-.54-.44-.91c-.11-.37-.16-.82-.16-1.35h-.02Zm2.28,2.08c.15,0,.29-.02.41-.06s.22-.09.31-.15.16-.12.22-.19c.06-.06.11-.12.14-.17v-3.55c-.09-.06-.19-.1-.31-.14-.12-.04-.26-.06-.44-.06-.22,0-.43.04-.63.11s-.37.2-.51.38c-.14.18-.26.4-.34.68-.08.28-.13.62-.13,1.03s.03.73.1,1,.16.48.28.65.26.28.41.35.31.11.48.11h0Z"/>
      <path d="m66.35,4.78c0,.25,0,.46-.02.64s-.03.34-.05.47h-2.94c.03.68.18,1.18.44,1.5s.63.48,1.12.48c.17,0,.32-.02.46-.06.14-.04.25-.09.35-.14s.18-.11.25-.17.12-.1.15-.13l.36.68s-.1.1-.18.17-.19.15-.32.23c-.14.08-.3.14-.5.2-.2.06-.44.08-.71.08-.36,0-.69-.06-.98-.18s-.54-.31-.74-.56-.36-.57-.47-.96-.17-.85-.17-1.4c0-.51.06-.95.17-1.33.12-.37.27-.68.47-.92.2-.24.43-.42.7-.53.26-.12.55-.17.85-.17.55,0,.98.17,1.3.52.31.35.47.87.47,1.57h0Zm-1.82-1.29c-.34,0-.62.14-.83.43s-.33.7-.36,1.25h2.1s0-.1.02-.17v-.25c0-.4-.08-.71-.24-.93-.16-.22-.39-.33-.7-.33h0Z"/>
      <path d="m0,17.71c0-.53.06-.98.19-1.37s.29-.7.5-.94c.21-.24.46-.42.73-.54.28-.12.57-.17.88-.17s.62.06.89.17c.27.12.51.3.71.54s.36.56.47.94c.12.38.17.84.17,1.37s-.06,1-.18,1.38-.29.7-.5.94c-.21.24-.46.42-.74.53s-.58.17-.89.17-.62-.06-.89-.17c-.27-.11-.51-.29-.71-.53-.2-.24-.36-.56-.47-.94-.12-.38-.17-.84-.17-1.39h0Zm3.54,0c0-.77-.11-1.33-.34-1.67-.22-.35-.54-.52-.94-.52s-.71.17-.93.52c-.22.35-.33.91-.33,1.67s.11,1.32.34,1.66c.22.34.54.5.94.5s.71-.17.93-.5.33-.89.33-1.66Z"/>
      <path d="m8.13,15.63h-1.18v4.97h-.97v-4.97h-.7v-.65l.7-.13v-1.15c0-.31.04-.58.13-.8.09-.22.2-.41.35-.55.14-.14.31-.25.5-.31s.4-.1.61-.1.38.03.53.08.24.1.29.13l-.2.8s-.12-.07-.2-.1-.2-.05-.32-.05c-.23,0-.41.07-.53.22s-.18.41-.18.79v1.03h1.3l-.12.79h-.01Z"/>
      <path d="m11.62,20.59v-8.28h4.07l-.07.83h-2.95v3.06h2.72v.83h-2.72v3.56h-1.05Z"/>
      <path d="m16.42,17.71c0-.53.06-.98.19-1.37s.29-.7.5-.94c.21-.24.46-.42.73-.54.28-.12.57-.17.88-.17s.62.06.89.17c.27.12.51.3.71.54s.36.56.47.94c.12.38.17.84.17,1.37s-.06,1-.18,1.38-.29.7-.5.94-.46.42-.74.53-.58.17-.89.17-.62-.06-.89-.17c-.27-.11-.51-.29-.71-.53s-.36-.56-.47-.94c-.12-.38-.17-.84-.17-1.39h0Zm3.54,0c0-.77-.11-1.33-.34-1.67-.22-.35-.54-.52-.94-.52s-.71.17-.93.52c-.22.35-.33.91-.33,1.67s.11,1.32.34,1.66c.22.34.54.5.94.5s.71-.17.93-.5c.22-.34.33-.89.33-1.66Z"/>
      <path d="m21.93,17.71c0-.53.06-.98.19-1.37s.29-.7.5-.94c.21-.24.46-.42.73-.54.28-.12.57-.17.88-.17s.62.06.89.17c.27.12.51.3.71.54s.36.56.47.94c.12.38.17.84.17,1.37s-.06,1-.18,1.38-.29.7-.5.94-.46.42-.74.53-.58.17-.89.17-.62-.06-.89-.17c-.27-.11-.51-.29-.71-.53s-.36-.56-.47-.94c-.12-.38-.17-.84-.17-1.39h0Zm3.54,0c0-.77-.11-1.33-.34-1.67-.22-.35-.54-.52-.94-.52s-.71.17-.93.52c-.22.35-.33.91-.33,1.67s.11,1.32.34,1.66c.22.34.54.5.94.5s.71-.17.93-.5c.22-.34.33-.89.33-1.66Z"/>
    </g>
  </g>
</svg>