<?xml version="1.0" encoding="utf-8"?>
<!-- Generator: Adobe Illustrator 27.1.0, SVG Export Plug-In . SVG Version: 6.00 Build 0)  -->
<svg version="1.1" id="Ebene_1" xmlns="http://www.w3.org/2000/svg" xmlns:xlink="http://www.w3.org/1999/xlink" x="0px" y="0px"
     viewBox="0 0 158.2 104.5" style="enable-background:new 0 0 158.2 104.5;" xml:space="preserve">
<style type="text/css">
	.st0{fill:#FF0000;}
	.st1{fill:#FFCC00;}
</style>
    <path d="M37,27.1c0-0.2,0-0.5,0-0.7c0-0.1,0-0.3,0-0.5c2,0,3.7-1.5,3.7-3.1c0-0.8-0.5-1.5-0.9-1.9c0.1,0,0.1,0,0.2,0
	c0.3,0.2,1.1,1.2,1.1,2.3C41.2,25.3,39.2,27.1,37,27.1 M35,20.2c0-0.2-0.1-0.4-0.2-0.6c0-0.2,0.1-0.4,0.4-0.2c-0.2,0.2,0,0.5,0,0.5
	s0.4-0.2,0.3-0.4C35.9,19.6,35.5,20.4,35,20.2 M34.5,21.3c-0.1-0.3-0.2-0.6-0.4-0.8c-0.2-0.2-0.5-0.5-0.9-0.5
	c-0.2,0-0.5,0.1-0.7,0.2c-0.1-0.1-0.2-0.4-0.2-0.6s0.2-0.3,0.7-0.3c1,0,1.7,0.5,1.7,1.2C34.7,20.8,34.6,21,34.5,21.3 M27.9,23.3
	c0-1.1,0.8-2,1.1-2.3c0.1,0,0.1,0,0.2,0c-0.3,0.4-0.9,1-0.9,1.9c0,1.7,1.8,3.1,3.8,3.1c0,0.1,0,0.3,0,0.5c0,0.2,0,0.5,0,0.7
	C29.9,27.1,27.9,25.3,27.9,23.3 M43.2,26.8c1,1.6,1.8,1.6,3,1.6c-1-0.8-1.7-1.8-2-2.2l-1.9-3c-0.2-0.9-0.7-1.8-1.4-2.4
	c0.2-0.1,0.4-0.2,0.6-0.3c-1.2,0-2.4-0.6-3.1-0.6c-0.4,0-0.7,0.3-0.7,0.6c0,0.4,0.4,0.8,1.1,0.8c0.2,0,0.4,0,0.6-0.1
	c0.4,0.5,0.7,1,0.7,1.7c0,1.3-1.6,2.3-3.2,2.3c-0.1,0-0.2,0-0.3,0c-0.1-0.3-0.6-0.9-0.6-1.5c0-1,0.7-1.9,0.7-2.9
	c0-0.6-0.3-1-0.4-1.2c0.2-0.2,0.4-0.4,0.5-0.5c-0.1,0-0.2,0.1-0.4,0.1c-0.8,0-1.4-0.2-2-0.2c-0.3,0-0.4,0.1-0.4,0.2c0,0,0,0.1,0,0.1
	c-0.1,0-0.2-0.1-0.4-0.1c-0.2,0-0.4,0-0.6,0c-0.7,0-1,0.3-1,0.6c0,0.2,0.2,0.6,0.4,0.9c0.3-0.1,0.6-0.2,0.8-0.2
	c0.4,0,0.7,0.4,0.9,0.8c-0.3,0-0.3,0-0.6,0c-0.7,0-1.2-0.3-1.3-0.3c0,0,0,0,0,0c0,0.1,0.2,0.4,0.6,0.5c0.5,0.2,1.3,0.3,1.4,0.3
	c0,0-0.1,0.3-0.3,0.3c0,0-0.1,0-0.1,0c-0.5-0.1-0.7-0.1-1.4-0.4c0,0,0,0,0,0c0,0.3,0.7,0.9,1.3,1.1c-0.5,0.7-1.2,1.4-1.5,2.4
	c-0.1,0-0.2,0-0.3,0c-1.6,0-3.1-1-3.1-2.3c0-0.7,0.3-1.2,0.7-1.7c0.2,0,0.4,0.1,0.6,0.1c0.7,0,1.1-0.4,1.1-0.8
	c0-0.3-0.3-0.6-0.7-0.6c-0.7,0-1.9,0.6-3.1,0.6c0.1,0.1,0.3,0.2,0.6,0.3c-0.7,0.6-1.2,1.5-1.4,2.4l-1.9,3c-0.3,0.5-1,1.5-2,2.2
	c1.2,0,2,0,3-1.6l1-1.5c0.1,0.2,0.2,0.4,0.3,0.6l-1.9,3c-0.3,0.5-1,1.5-2,2.2c1.2,0,2,0,3-1.6l1.6-2.6c0.1,0.1,0.2,0.3,0.4,0.4
	L26,31c-0.3,0.5-1,1.5-2,2.2c1.2,0,2,0,3-1.6l2.3-3.6c0.1,0.1,0.3,0.2,0.5,0.3L27,32.8c-0.3,0.5-1,1.5-2,2.2c1.2,0,2,0,3-1.6
	l2.8-4.5c0.2,0.1,0.3,0.1,0.5,0.2l-3.2,5.1c-0.3,0.5-1,1.5-2,2.2c1.2,0,2,0,3-1.6l3.4-5.5c0,0,0.1,0,0.1,0c0.1,0.3,0.2,0.6,0.2,0.9
	c0,1.7-1.1,3.2-2.5,4.4c0.1,0,0.2,0,0.4,0c0.3,0,0.5,0,0.6,0c-0.3,0.7-1,1.6-1.3,2.1c-0.4-0.1-1.1-0.1-1.5-0.1s-0.5,0.3-0.5,0.5
	c0,0.4,0.2,0.7,0.4,0.9c0.1-0.2,0.2-0.5,1.1-0.5c0,0,0,0,0.1,0c-0.2,0.3-1,0.9-1,1.3c0,0.3,0.4,0.8,0.8,0.8c0-0.1,0-0.2,0-0.3
	c0-0.4,0.4-0.8,0.6-1.2c0,0.1,0,0.1,0,0.2c0,0.9,0.1,1.4,0.7,1.4c0.3,0,0.5-0.2,0.6-0.2c-0.4-0.3-0.4-0.6-0.4-1.2c0-0.1,0-0.3,0-0.5
	c0-0.1,0-0.3,0-0.4c0.2,0,0.3,0,0.5,0c0,0,0.8-0.1,1,0.4c0.2-0.2,0.6-0.5,0.6-0.8c0-0.2-0.1-0.5-0.5-0.5c-0.2,0-0.7,0.1-1.1,0.1
	c0.1-0.3,0.6-1,1.1-1.6c0.1,0.2,0.2,0.4,0.4,0.6c0-0.3,0.2-1.5,0.8-2.1c0.1,0.4,0.2,0.9,0.2,1.8c0,2.3-0.6,4-1.7,4.3
	c0.2,0.3,0.5,0.5,0.8,0.5c0.4,0,0.7-0.5,0.9-1c0.1,0.3,0.5,1.2,0.8,1.2s0.7-0.8,0.8-1.2c0.2,0.5,0.5,1,0.9,1c0.3,0,0.7-0.2,0.8-0.5
	c-1.2-0.3-1.7-2-1.7-4.3c0-1,0.1-1.4,0.2-1.8c0.5,0.7,0.8,1.8,0.8,2.1c0.2-0.2,0.3-0.4,0.4-0.6c0.5,0.5,1,1.3,1.1,1.6
	c-0.4,0-1-0.1-1.1-0.1c-0.4,0-0.5,0.2-0.5,0.5c0,0.3,0.3,0.6,0.6,0.8c0.2-0.4,1-0.4,1-0.4c0.2,0,0.2,0,0.5,0c0,0.1,0,0.3,0,0.4
	c0,0.2,0,0.3,0,0.5c0,0.5,0,0.8-0.4,1.2c0.1,0,0.3,0.2,0.6,0.2c0.6,0,0.7-0.4,0.7-1.4c0-0.1,0-0.1,0-0.2c0.3,0.3,0.6,0.8,0.6,1.2
	c0,0.1,0,0.2,0,0.3c0.5,0,0.8-0.5,0.8-0.8c0-0.5-0.8-1.1-1-1.3c0,0,0.1,0,0.1,0c0.8,0,1,0.3,1.1,0.5c0.2-0.2,0.4-0.5,0.4-0.9
	c0-0.2,0-0.5-0.5-0.5s-1.1,0.1-1.5,0.1c-0.3-0.5-1-1.4-1.3-2.1c0.1,0,0.3,0,0.6,0c0.1,0,0.3,0,0.4,0c-1.3-1.2-2.5-2.7-2.5-4.4
	c0-0.3,0.1-0.5,0.2-0.9c0,0,0.1,0,0.1,0l3.4,5.5c1,1.6,1.8,1.6,3,1.6c-1-0.8-1.7-1.8-2-2.2l-3.2-5.1c0.2-0.1,0.3-0.1,0.5-0.2
	l2.8,4.5c1,1.6,1.8,1.6,3,1.6c-1-0.8-1.7-1.7-2-2.2l-2.8-4.4c0.2-0.1,0.3-0.2,0.5-0.3l2.3,3.6c1,1.6,1.8,1.6,3,1.6
	c-1-0.8-1.7-1.7-2-2.2l-2.3-3.7c0.1-0.1,0.3-0.2,0.4-0.4l1.6,2.6c1,1.6,1.8,1.6,3,1.6c-1-0.8-1.7-1.8-2-2.2l-1.9-3
	c0.1-0.2,0.2-0.4,0.3-0.6L43.2,26.8L43.2,26.8z"/>
    <g>
	<path d="M49.5,13.6h3.2v10.8h-3.2C49.5,24.4,49.5,13.6,49.5,13.6z"/>
        <path class="st0" d="M49.5,24.4h3.2v10.8h-3.2C49.5,35.3,49.5,24.4,49.5,24.4z"/>
        <path class="st1" d="M49.5,35.3h3.2v10.8h-3.2C49.5,46.1,49.5,35.3,49.5,35.3z"/>
</g>
</svg>
