<svg width="32" height="32" xmlns="http://www.w3.org/2000/svg"><defs><linearGradient x1="82.888%" y1="14.144%" x2="20.623%" y2="80.535%" id="a"><stop stop-color="#55438d" offset="0%"/><stop offset="100%"/></linearGradient></defs><path d="M3.907 6.533a2.84 2.84 0 011.92 0c1.413.52 4.626 4.894 4.706 6.414a2.8 2.8 0 01-1.52 2.44c-.8.546-.933 1.16-.466 2.213 1.058 2.408 3 4.317 5.426 5.333.974.44 1.374.067 1.654-.346a3.36 3.36 0 012.133-1.6 3.787 3.787 0 012.88.853l2.667 1.96c.92.707 2.186 1.68 1.52 3.613a6.227 6.227 0 01-5.174 3.92 6.547 6.547 0 01-1.52-.4 31.667 31.667 0 01-17.48-17.6A5.08 5.08 0 01.6 9.2a5.333 5.333 0 013.307-2.667zm10.154 2.82l.139.007a9.2 9.2 0 014.773 1.707 9.573 9.573 0 014.094 7.173 1.333 1.333 0 01-.787 1.333 1.333 1.333 0 01-1.88-1.133 6.92 6.92 0 00-6.36-6.36 1.333 1.333 0 01-1.307-1.467c.01-.176.056-.348.134-.506A1.333 1.333 0 0114.2 9.36zm.186-3.28a1.361 1.361 0 011.606-1.06A15.347 15.347 0 0127.56 16.827a1.357 1.357 0 11-2.667.506 12.613 12.613 0 00-9.586-9.653 1.361 1.361 0 01-1.06-1.607zm1.446-4.42c.195-.71.93-1.128 1.64-.933a20.96 20.96 0 0114.44 14.413l-.026.014a1.334 1.334 0 01-2.574.706 18.253 18.253 0 00-12.546-12.56 1.334 1.334 0 01-.934-1.64z" /></svg>
