<svg width="50" height="50" xmlns="http://www.w3.org/2000/svg" xmlns:xlink="http://www.w3.org/1999/xlink"><defs><filter x="-16.7%" y="-11.9%" width="133.3%" height="133.3%" filterUnits="objectBoundingBox" id="a"><feOffset dy="2" in="SourceAlpha" result="shadowOffsetOuter1"/><feGaussianBlur stdDeviation="2" in="shadowOffsetOuter1" result="shadowBlurOuter1"/><feComposite in="shadowBlurOuter1" in2="SourceAlpha" operator="out" result="shadowBlurOuter1"/><feColorMatrix values="0 0 0 0 0 0 0 0 0 0 0 0 0 0 0 0 0 0 0.5 0" in="shadowBlurOuter1"/></filter><circle id="b" cx="21" cy="21" r="21"/></defs><g fill="none" fill-rule="evenodd"><g transform="translate(4 2)"><use fill="#000" filter="url(#a)" xlink:href="#b"/><circle stroke="#FFF" stroke-width="2" stroke-linejoin="square" fill="#55438d" cx="21" cy="21" r="20"/></g><g transform="translate(15 15)"><path d="M14 0a2 2 0 012 2h2a2 2 0 012 2v9a2 2 0 01-2 2H2a2 2 0 01-2-2V4a2 2 0 012-2h2a2 2 0 012-2h8z" fill="#FFF"/><circle stroke="#55438d" cx="10" cy="8" r="4.5"/><circle fill="#55438d" cx="17" cy="5" r="1"/></g></g></svg>