<svg xmlns="http://www.w3.org/2000/svg" width="80" height="80"><circle cx="40" cy="40" r="40" fill="#fff"/><path d="M22.36 33.51a3.12 3.12 0 1 0 3.15 3.12 3.14 3.14 0 0 0-3.15-3.12zm0 4.78A1.66 1.66 0 1 1 24 36.64a1.67 1.67 0 0 1-1.64 1.66zm32.26-9.07H18.55A3.53 3.53 0 0 0 15 32.73v22.61a3.44 3.44 0 0 0 .2 1.16 1.57 1.57 0 0 0 2 .92.85.85 0 0 0 .49-.26l.08-.09v-.05l8.71-10.18L28.73 49a.86.86 0 0 0 1.18 0l3-2.75 3 2.75a.86.86 0 0 0 1.19 0c.77-.78 1.81-1.84 2.39-2.41L42 49.38l-6 6.44h-7.29a.84.84 0 1 0 0 1.68h25.9a3.53 3.53 0 0 0 3.56-3.5V32.73a3.53 3.53 0 0 0-3.56-3.51zm-18.17 18-3-2.72a.8.8 0 0 0-.12-.07.84.84 0 0 0-.14-.09h-.64a.85.85 0 0 0-.14.09.81.81 0 0 0-.12.07l-3 2.73c-.83-.81-1.37-1.35-1.75-1.7l5.29-6.19 5.44 6c-.33.34-.91.93-1.83 1.87zm2.28-1.13.17-.15zm-5.2-8.57a.85.85 0 0 0-.63-.28.85.85 0 0 0-.63.27L16.73 55.62a1.82 1.82 0 0 1 0-.29v-22.6a1.84 1.84 0 0 1 1.85-1.82h36.03a1.84 1.84 0 0 1 1.85 1.82v17.84l-8-6.9a.86.86 0 0 0-1.18.07l-4.06 4.39zm21.08 18.3H38.39l9.55-10.33 8.52 7.31V54a1.84 1.84 0 0 1-1.85 1.82zM65 26v21.27a3.53 3.53 0 0 1-3.55 3.5h-1a.84.84 0 1 1 0-1.68h1a1.84 1.84 0 0 0 1.85-1.82V26a1.84 1.84 0 0 0-1.85-1.82h-1.72a.84.84 0 1 1 0-1.68h1.72A3.53 3.53 0 0 1 65 26zm-43.17 1v-1a3.53 3.53 0 0 1 3.55-3.5H46a.84.84 0 1 1 0 1.68H25.39A1.84 1.84 0 0 0 23.54 26v.92a.9.9 0 0 1-.84.92.85.85 0 0 1-.87-.84zm28.95-3.66a.93.93 0 0 1 1-.83h3.17a.85.85 0 1 1 0 1.67h-3.18a.93.93 0 0 1-.99-.84z"/></svg>
