<svg width="29" height="32" xmlns="http://www.w3.org/2000/svg"><defs><linearGradient x1="50%" y1="-1.909%" x2="50%" y2="102.092%" id="a"><stop stop-color="#55438d" offset="0%"/><stop offset="100%"/></linearGradient></defs><path d="M6.75 10.91a.5.5 0 01.5.5v19.363a.5.5 0 01-.5.5H.5a.5.5 0 01-.5-.5V11.409a.5.5 0 01.5-.5h6.25zm14.554-.732l.287.004c4.32 0 7.409 2.662 7.409 8.145v12.218a.726.726 0 01-.725.728h-4.35a.726.726 0 01-.725-.728V19.636A3.63 3.63 0 0019.575 16a3.63 3.63 0 00-3.625 3.636v10.91a.726.726 0 01-.725.727h-4.35a.726.726 0 01-.725-.728V11.636c0-.401.325-.727.725-.727h4.35c.4 0 .725.326.725.727a.593.593 0 001.044.393 6.095 6.095 0 014.596-1.847zM3.596.728c1.986 0 3.596 1.627 3.596 3.636C7.192 6.372 5.582 8 3.596 8S0 6.372 0 4.364C0 2.355 1.61.727 3.596.727z" fill="url(#a)"/></svg>