<svg width="32" height="32" xmlns="http://www.w3.org/2000/svg"><defs><linearGradient x1="50%" y1="-1.909%" x2="50%" y2="102.092%" id="a"><stop stop-color="#55438d" offset="0%"/><stop offset="100%"/></linearGradient></defs><path d="M7.92 15a.333.333 0 01.32.413 8 8 0 1015.533 0 .333.333 0 01.32-.413h7.24c.369 0 .667.298.667.667v7.666A8.68 8.68 0 0123.333 32H8.667A8.68 8.68 0 010 23.333v-7.666C0 15.298.298 15 .667 15zM16 13.333a4 4 0 110 8 4 4 0 010-8zM31.333 13a.667.667 0 00.667-.667V8.667A8.68 8.68 0 0023.333 0h-7.666A.667.667 0 0015 .667V6a1 1 0 01-2 0V.667A.667.667 0 0012.333 0h-.666A.667.667 0 0011 .667V6a1 1 0 01-2 0V.667A.667.667 0 008.307 0h-.734A.667.667 0 007 .667V6a1 1 0 11-2 0V1.333a.333.333 0 00-.493-.253A8.667 8.667 0 000 8.667v3.666c0 .369.298.667.667.667h8.266a.667.667 0 00.547-.28 8 8 0 0113.053 0c.126.177.33.281.547.28h8.253zm-8-7c0-.736.597-1.333 1.334-1.333H26c.736 0 1.333.597 1.333 1.333v1.333c0 .737-.597 1.334-1.333 1.334h-1.333a1.333 1.333 0 01-1.334-1.334V6z" fill="url(#a)"/></svg>