<svg width="32" height="32" xmlns="http://www.w3.org/2000/svg"><defs><linearGradient x1="50%" y1="-1.909%" x2="50%" y2="102.092%" id="a"><stop stop-color="#55438d" offset="0%"/><stop offset="100%"/></linearGradient></defs><path d="M26.067 19.413A.667.667 0 0125.4 20h-2.733a.667.667 0 00-.667.667v10.666c0 .369.298.667.667.667h8c.736 0 1.333-.597 1.333-1.333V1.333C32 .597 31.403 0 30.667 0H1.333C.597 0 0 .597 0 1.333v29.334C0 31.403.597 32 1.333 32H16a.667.667 0 00.667-.667V20.667A.667.667 0 0016 20h-2.667a.667.667 0 01-.666-.667v-4c0-.368.298-.666.666-.666H16a.667.667 0 00.667-.667v-1.747a7.587 7.587 0 017.586-7.586H26a.667.667 0 01.667.666v4A.667.667 0 0126 10h-1.747A2.253 2.253 0 0022 12.253V14c0 .368.298.667.667.667h3.24a.667.667 0 01.666.746l-.506 4z" fill="url(#a)"/></svg>