<svg xmlns="http://www.w3.org/2000/svg" width="400" height="120"><defs><style>.a{fill:#55438d}.h{fill:#fff}</style></defs><path class="a" d="M16.5 8.14a.524.524 0 01.2.8.378.378 0 01-.2.2l-11.4 7c-.5.3-.8.1-.8-.5v-14c0-.5.4-.8.8-.5zM24 .64h2.2a.945.945 0 011 1v14a.945.945 0 01-1 1H24a.945.945 0 01-1-1v-14a1 1 0 011-1zm9.8 0H36a.945.945 0 011 1v14a.945.945 0 01-1 1h-2.2a.945.945 0 01-1-1v-14a1 1 0 011-1zm47.2.4a.945.945 0 011-1h5.4c.6 0 .7.3.3.7l-6 6c-.4.4-.7.3-.7-.3v-5.4zm0 15.8a.945.945 0 001 1h5.4c.6 0 .7-.3.3-.7l-6-6c-.4-.4-.7-.3-.7.3v5.4zm17.8-15.8a.945.945 0 00-1-1h-5.4c-.6 0-.7.3-.3.7l6 6c.4.4.7.3.7-.3v-5.4zm0 15.8a.945.945 0 01-1 1h-5.4c-.6 0-.7-.3-.3-.7l6-6c.4-.4.7-.3.7.3v5.4zm13.9-12.2a.945.945 0 001 1h4.1c.6 0 .7-.3.3-.7l-4.7-4.7c-.4-.4-.7-.3-.7.3v4.1zm-7.1 1a.945.945 0 001-1V.54c0-.6-.3-.7-.7-.3l-4.7 4.7c-.4.4-.3.7.3.7h4.1zm1 7.1a.945.945 0 00-1-1h-4.1c-.6 0-.7.3-.3.7l4.7 4.7c.4.4.7.3.7-.3v-4.1zm7.1-1a.945.945 0 00-1 1v4.1c0 .5.3.7.7.3l4.7-4.7c.4-.4.3-.7-.3-.7h-4.1zM67 5.44a3 3 0 01-1.8.6H62a.945.945 0 00-1 1v5.7a.945.945 0 001 1h4.2l.8.6 3.5 2.6a.466.466 0 00.8-.4V3.14a.466.466 0 00-.8-.4z"/><path d="M73.9 2.14a8.74 8.74 0 013.9 7.7 9.012 9.012 0 01-3.9 7.8m-1.3-11.6a3.771 3.771 0 012.6 3.8 3.958 3.958 0 01-2.6 3.9" stroke-width="1.5" stroke-linecap="round" stroke="#55438d" fill="none"/><path class="a" d="M47 5.44a3 3 0 01-1.8.6H42a.945.945 0 00-1 1v5.7a.945.945 0 001 1h4.2l.8.6 3.5 2.6a.466.466 0 00.8-.4V3.14a.466.466 0 00-.8-.4z"/><path d="M52.8 6.64l5.4 5.4m-5.4 0l5.4-5.4" stroke-width="2" stroke-linecap="round" stroke="#55438d" fill="none"/><path d="M124.1 5.94v7.5m4.7-.5h-4.7m4.4-7.1v7.5m2.3-6.9h6.1m-3.1.4v6.6" stroke="#55438d" fill="none"/><path class="a" d="M122.2 3.04h15.7v13.1h-15.7V3.04zm-1.4-1.4v15.7h18.3V1.64h-18.3zm22.4 1h14a2.006 2.006 0 012 2v10a2.006 2.006 0 01-2 2h-14a2.006 2.006 0 01-2-2v-10a2.006 2.006 0 012-2z"/><path d="M144.6 5.94v7.5m4.7-.5h-4.7m4.4-7.1v7.5m2.3-6.9h6.1" stroke="#fff" fill="none"/><path d="M154.3 6.84v6.6" fill="#fff" stroke="#fff"/><path d="M82.5 78.64a37.5 37.5 0 1137.5 37.5 37.514 37.514 0 01-37.5-37.5z" opacity=".75" stroke-width="3" stroke="#fff" fill="#55438d"/><path class="h" d="M140.3 76.64a1.033 1.033 0 01.6 1.4.9.9 0 01-.6.6L110 96.14c-1 .6-1.7.1-1.7-1v-35a1.051 1.051 0 011.7-1z"/><path d="M2.5 78.64a37.5 37.5 0 1137.5 37.5 37.514 37.514 0 01-37.5-37.5z" style="isolation:isolate" stroke-width="5" opacity=".75" stroke="#55438d" fill="#55438d"/><path class="h" d="M60.3 76.64a1.033 1.033 0 01.6 1.4.9.9 0 01-.6.6L30 96.14c-1 .6-1.7.1-1.7-1v-35a1.051 1.051 0 011.7-1z"/><circle class="a" cx="201.9" cy="46.74" r="8.1"/><circle cx="233.9" cy="78.64" r="5" style="isolation:isolate" opacity=".4" fill="#55438d"/><circle cx="201.9" cy="110.54" r="6" style="isolation:isolate" opacity=".6" fill="#55438d"/><circle cx="170.1" cy="78.64" r="7" style="isolation:isolate" opacity=".8" fill="#55438d"/><circle cx="178.2" cy="55.94" r="7.5" style="isolation:isolate" opacity=".9" fill="#55438d"/><circle cx="226.3" cy="55.74" r="4.5" style="isolation:isolate" opacity=".3" fill="#55438d"/><circle cx="225.8" cy="102.44" r="5.5" style="isolation:isolate" opacity=".5" fill="#55438d"/><circle cx="178.2" cy="102.44" r="6.5" style="isolation:isolate" opacity=".7" fill="#55438d"/><path class="a" d="M169.4 15.54a5.918 5.918 0 01-2.9-.7 5.765 5.765 0 01-3.2-5.2 6.213 6.213 0 016.3-6 6.289 6.289 0 014.476 2.135l1.649-.956A8.122 8.122 0 00168.3 1.84a8.239 8.239 0 00-7 7.9 8.06 8.06 0 004.3 7 10.207 10.207 0 003.8 1 8.241 8.241 0 006.6-3.3l-1.8-.9a6.984 6.984 0 01-4.8 2zm8.6-6.5a.669.669 0 01-.725.695 1.837 1.837 0 01-.375-.095l-4.9-1.8c-.5-.2-.6-.6-.1-.8l6.2-3.6c.5-.3.8-.1.7.5zm5.4-6.2a1.538 1.538 0 011.5 1.5 1.5 1.5 0 01-3 0 1.473 1.473 0 011.5-1.5zm5.1 0h8.5a1.473 1.473 0 011.5 1.5 1.538 1.538 0 01-1.5 1.5h-8.5a1.473 1.473 0 01-1.5-1.5 1.368 1.368 0 011.5-1.5zm-5.1 5a1.5 1.5 0 11-1.5 1.5 1.473 1.473 0 011.5-1.5zm5.1 0h8.5a1.473 1.473 0 011.5 1.5 1.538 1.538 0 01-1.5 1.5h-8.5a1.473 1.473 0 01-1.5-1.5 1.368 1.368 0 011.5-1.5zm-5.1 5a1.5 1.5 0 11-1.5 1.5 1.473 1.473 0 011.5-1.5zm5.1 0h8.5a1.473 1.473 0 011.5 1.5 1.538 1.538 0 01-1.5 1.5h-8.5a1.473 1.473 0 01-1.5-1.5 1.368 1.368 0 011.5-1.5z"/></svg>