<svg width="32" height="22" xmlns="http://www.w3.org/2000/svg"><defs><linearGradient x1="50%" y1="-1.909%" x2="50%" y2="102.092%" id="a"><stop stop-color="#55438d" offset="0%"/><stop offset="100%"/></linearGradient></defs><path d="M30.5.71a1.5 1.5 0 011.5 1.5V20.5a1.5 1.5 0 01-1.5 1.5h-29A1.5 1.5 0 010 20.5V2.21A1.5 1.5 0 011.5.71h29zM2 3.443V20h28V3.454l-.088.07-7.159 4.988 4.592 4.237a1 1 0 01-1.259 1.55l-.097-.08-4.917-4.536-2.817 1.964a3.925 3.925 0 01-4.308.124l-.187-.123-2.827-1.97-4.922 4.54a1 1 0 01-1.443-1.378l.087-.091 4.597-4.242-7.15-4.983A1.01 1.01 0 012 3.444zm25.583-.734H4.43l10.474 7.298c.617.43 1.417.461 2.061.092l.146-.092 10.472-7.298z" fill="url(#a)"/></svg>