<svg width="32" height="27" xmlns="http://www.w3.org/2000/svg"><defs><linearGradient x1="50%" y1="-1.909%" x2="50%" y2="102.092%" id="a"><stop stop-color="#55438d" offset="0%"/><stop offset="100%"/></linearGradient></defs><path d="M31.75 5.372a.692.692 0 00-.277-1.204L30.38 3.89a.692.692 0 01-.457-.97l.61-1.232a.692.692 0 00-.803-.969l-2.77.775a.692.692 0 01-.609-.11 6.923 6.923 0 00-11.077 5.538v.499a.346.346 0 01-.305.346c-3.89.457-7.615-1.523-11.631-6.148a.706.706 0 00-.706-.208.692.692 0 00-.402.582 10.496 10.496 0 00.637 6.812.346.346 0 01-.36.499L.956 9a.692.692 0 00-.79.817 7.131 7.131 0 003.282 5.234.346.346 0 010 .623l-.734.291a.692.692 0 00-.36.956 6.037 6.037 0 004.43 3.433.346.346 0 010 .651 15.148 15.148 0 01-5.94 1.15.706.706 0 00-.276 1.384 27.776 27.776 0 0011.27 2.673 17.419 17.419 0 009.693-2.77A17.308 17.308 0 0029.231 9V7.796a.692.692 0 01.248-.527l2.271-1.897z" fill="url(#a)"/></svg>