<svg width="42" height="42" xmlns="http://www.w3.org/2000/svg"><g fill="none" fill-rule="evenodd"><circle stroke="#FFF" stroke-width="2" fill="#55438d" cx="21" cy="21" r="20"/><path d="M21.05 27.227l-5.11 2.58a1 1 0 01-1.435-1.07l.955-5.348a1 1 0 00-.3-.906l-4.019-3.76a1 1 0 01.545-1.72l5.626-.785a1 1 0 00.752-.534l2.547-4.954a1 1 0 011.778 0l2.547 4.954a1 1 0 00.752.534l5.626.784a1 1 0 01.545 1.721l-4.018 3.76a1 1 0 00-.301.906l.955 5.349a1 1 0 01-1.435 1.068l-5.11-2.579a1 1 0 00-.9 0z" fill="#F6F6F7"/></g></svg>