<svg xmlns="http://www.w3.org/2000/svg" viewBox="-454 261 50 40"><path d="m-452.6 301-1.4-2.3c7.9-4.4 11.9-8.4 11.9-12.1 0-.9-.3-1.8-1-2.5s-1.8-1.4-3.5-2.2c-2.6-1.5-4.4-2.9-5.5-4.4-1.1-1.4-1.6-3.3-1.6-5.5 0-3 1-5.6 3.1-7.8s4.6-3.3 7.6-3.3c3.3 0 5.9 1.3 7.9 4s3 6.1 3 10.4c0 7-2.6 13-7.8 18-1.8 1.7-3.5 3-5.3 4-1.7 1.3-4.2 2.4-7.4 3.7zm27.9 0-1.5-2.1c7.9-4.4 11.9-8.5 11.9-12.2 0-.9-.4-1.7-1.1-2.5-.7-.8-1.8-1.5-3.3-2.2-2.6-1.4-4.5-2.8-5.6-4.3-1.1-1.5-1.6-3.3-1.6-5.6 0-3.1 1.1-5.7 3.2-7.8 2.1-2.1 4.6-3.2 7.6-3.2 3.3 0 6 1.3 8 3.9 2 2.6 3.1 6.1 3.1 10.4 0 7-2.6 13-7.8 18-1.1 1.1-2.2 2-3.4 2.8-1.1.8-2.4 1.6-3.9 2.3-1.5.8-3.4 1.6-5.6 2.5z" /></svg>