<svg width="32" height="32" xmlns="http://www.w3.org/2000/svg"><defs><linearGradient x1="50%" y1="-1.909%" x2="50%" y2="102.092%" id="a"><stop stop-color="#55438d" offset="0%"/><stop offset="100%"/></linearGradient></defs><path d="M15.987 31.052c.77 0 1.539-.058 2.3-.175a.728.728 0 01.451.073A9.04 9.04 0 0032 22.9a9.115 9.115 0 00-1.107-4.368.728.728 0 01-.087-.45A15.052 15.052 0 0015.986.931c-.75.003-1.5.061-2.241.175a.728.728 0 01-.452-.073A9.084 9.084 0 001.08 13.38a.728.728 0 01.073.451 15.038 15.038 0 0014.834 17.222zm.145-25.257c4.6.276 7.279 2.3 7.556 4.207a1.936 1.936 0 01-2.111 2.198c-2.082 0-2.3-2.78-5.823-2.78-1.616 0-2.912.67-2.912 2.14 0 3.057 11.486 1.28 11.486 8.02 0 3.887-3.1 6.435-7.715 6.435-4.062 0-8.153-1.849-8.123-5.037a1.79 1.79 0 011.528-1.834c2.387 0 2.373 3.566 6.187 3.566 2.679 0 3.581-1.455 3.581-2.489 0-3.683-11.544-1.456-11.544-8.356 0-3.741 3.072-6.332 7.89-6.07z" fill="url(#a)"/></svg>