<svg xmlns="http://www.w3.org/2000/svg" xml:space="preserve" style="enable-background:new 0 0 122.88 97.05" viewBox="0 0 122.88 97.05">
  <path fill="#005e8e" d="M9.35 37.38c.85-.9 2.27-.93 3.17-.08.9.85.93 2.27.08 3.16l-7.26 7.6 7.26 7.62c.85.9.82 2.31-.08 3.16-.9.85-2.31.82-3.17-.08L.62 49.59c-.82-.86-.83-2.22 0-3.09l8.73-9.12zm65.63 9.19-7.17-6.88-1.51 9.29c-.03.18-.08.37-.17.53-.08.16-.21.32-.36.44-.32.27-.73.39-1.12.37-.39-.03-.77-.21-1.05-.54L52.63 36.81 40.56 47.18v5.79H82.3V39.51l-6.69 7.01a.4.4 0 0 1-.33.18c-.13-.01-.23-.05-.3-.13zm.26-4.04 7.06-7.74V20.02h.01-41.75v22.97c3.48-3.15 7.66-6.61 11.21-9.59.32-.27.71-.39 1.08-.37.39.02.77.19 1.05.49l.01.02c.02.02.03.03.05.06l9.8 11.59 1.46-8.94c.08-.41.31-.75.62-.98.31-.22.71-.34 1.13-.27l.04.01c.15.03.29.08.42.14.14.07.27.16.39.27l7.42 7.11zm-7.37-19.66c.6 0 1.2.13 1.74.35.56.23 1.06.57 1.48.99.42.42.76.92 1 1.48.22.54.34 1.13.34 1.74s-.13 1.2-.34 1.73c-.23.56-.57 1.06-.99 1.48-.42.42-.92.76-1.48.99-.54.23-1.12.35-1.73.35-.6 0-1.2-.13-1.74-.35a4.634 4.634 0 0 1-2.48-2.47 4.56 4.56 0 0 1-.34-1.73c0-.6.13-1.2.34-1.74.23-.56.57-1.06.99-1.48.42-.42.92-.76 1.48-.99.53-.23 1.11-.35 1.73-.35zm1.37 3.19c-.18-.18-.39-.32-.63-.43a2.028 2.028 0 0 0-1.48 0c-.24.1-.45.25-.63.42-.18.18-.32.39-.42.63a2.028 2.028 0 0 0 0 1.48c.1.24.25.45.42.63.18.18.39.32.63.43a2.028 2.028 0 0 0 1.48 0c.24-.1.45-.25.63-.42.18-.18.32-.39.42-.63a2.028 2.028 0 0 0 0-1.48c-.1-.24-.25-.45-.42-.63zM39.83 83.73c-1.39 0-2.51-1.13-2.51-2.51 0-1.39 1.12-2.51 2.51-2.51h42.5c1.39 0 2.51 1.13 2.51 2.51 0 1.39-1.12 2.51-2.51 2.51h-42.5zm.47-12.08c-1.39 0-2.51-1.13-2.51-2.51 0-1.39 1.12-2.51 2.51-2.51h21.96c1.39 0 2.51 1.13 2.51 2.51 0 1.39-1.12 2.51-2.51 2.51H40.3zm.63-55.51h41.02c1.16 0 2.22.48 2.98 1.24l.01.01c.77.77 1.24 1.82 1.24 2.98V52.6c0 1.16-.48 2.22-1.24 2.98l-.01.01c-.77.77-1.82 1.24-2.98 1.24H40.93a4.22 4.22 0 0 1-2.98-1.24l-.01-.01a4.195 4.195 0 0 1-1.24-2.98V20.38c0-1.16.48-2.22 1.24-2.98l.01-.01c.76-.77 1.82-1.25 2.98-1.25zm69.35 24.33c-.85-.9-.82-2.31.08-3.16.9-.85 2.31-.82 3.17.08l8.73 9.14c.83.87.82 2.23 0 3.09l-8.73 9.17c-.85.9-2.27.93-3.17.08-.9-.85-.93-2.27-.08-3.16l7.26-7.62-7.26-7.62zM25.31 0h72.26c1.21 0 2.31.5 3.11 1.3l.01.01c.8.8 1.29 1.9 1.29 3.11v88.22c0 1.21-.5 2.31-1.3 3.11l-.01.01c-.8.8-1.9 1.29-3.11 1.29H25.31c-1.2 0-2.31-.5-3.11-1.3l-.01-.01c-.8-.8-1.29-1.9-1.29-3.11V4.42c0-1.21.5-2.31 1.3-3.11l.01-.01C23 .49 24.1 0 25.31 0zM97.5 4.47H25.37v88.1h72.15V4.47h-.02z"/>
</svg>
